<?xml version="1.0" encoding="UTF-8"?>
<!DOCTYPE svg PUBLIC "-//W3C//DTD SVG 1.1//EN" "http://www.w3.org/Graphics/SVG/1.1/DTD/svg11.dtd">
<!-- Creator: CorelDRAW -->
<svg xmlns="http://www.w3.org/2000/svg" xml:space="preserve" width="30.0594mm" height="19.8187mm" version="1.1" style="shape-rendering:geometricPrecision; text-rendering:geometricPrecision; image-rendering:optimizeQuality; fill-rule:evenodd; clip-rule:evenodd"
viewBox="0 0 286.74 189.05"
 xmlns:xlink="http://www.w3.org/1999/xlink"
 xmlns:xodm="http://www.corel.com/coreldraw/odm/2003">
 <defs>
  <style type="text/css">
   <![CDATA[
    .fil0 {fill:#FEFEFE;fill-rule:nonzero}
    .fil1 {fill:#FEFEFE;fill-rule:nonzero;fill-opacity:0.349020}
   ]]>
  </style>
 </defs>
 <g id="Capa_x0020_1">
  <metadata id="CorelCorpID_0Corel-Layer"/>
  <g id="_1687232567392">
   <path id="path3010" class="fil0" d="M-0 87.92c23.74,11.91 45.45,-1.81 72.81,5.9 20.8,5.86 46.13,13.09 80.5,8.11 34.37,-4.97 63.77,-19.9 77.79,-46.58 4.37,-11.91 22.16,2.71 22.16,2.71 0,0 -12.96,-5.43 -12.66,-2.86 0.3,2.56 19.45,11.46 19.45,11.46 0,0 -17.34,-5.43 -16.28,-1.36 1.06,4.07 21.71,20.35 21.71,20.35 0,0 -23.37,-17.79 -25.33,-15.38 -1.96,2.41 9.95,12.21 9.95,12.21 0,0 -19.75,-12.21 -26.68,-8.61 -4.99,2.59 20.5,19.32 20.5,19.32 0,0 -16.58,-12.67 -20.5,-9.35 -3.92,3.32 18.7,30.45 18.7,30.45 0,0 -25.63,-27.74 -28.19,-26.38 -2.56,1.36 7.09,14.62 7.09,14.62 0,0 -12.67,-13.87 -16.13,-11.46 -3.47,2.41 18.09,38.44 18.09,38.44 0,0 -23.37,-36.94 -33.01,-30.75 15.15,33.24 9.5,37.99 9.5,37.99 0,0 -1.93,-33.91 -20.81,-33.02 -9.5,0.45 4.52,25.33 4.52,25.33 0,0 -12.9,-22.72 -21.5,-22.27 15.84,29.97 10.19,42.17 10.19,42.17 0,0 2.62,-25.6 -18.86,-39.85 8.14,7.24 -5.11,39.85 -5.11,39.85 0,0 11.66,-48.06 -8.59,-38.89 -3.2,1.45 -0.23,23.97 -0.23,23.97 0,0 -4.07,-25.78 -10.18,-24.42 -3.56,0.79 -22.62,35.73 -22.62,35.73 0,0 15.6,-37.76 10.86,-36.18 -3.46,1.15 -9.95,16.73 -9.95,16.73 0,0 3.17,-15.38 0,-16.28 -3.17,-0.9 -20.8,16.28 -20.8,16.28 0,0 13.12,-15.38 10.85,-18.54 -3.43,-4.8 -7.45,-5.02 -12.21,-3.16 -6.94,2.7 -16.28,15.38 -16.28,15.38 0,0 9.31,-12.83 7.69,-17.64 -2.61,-7.72 -29.4,14.92 -29.4,14.92 0,0 15.83,-14.92 12.21,-18.09 -3.62,-3.17 -23.26,-2.19 -29.4,-2.21 -18.09,-0.06 -24.36,-4.3 -29.85,-8.65z"/>
   <path id="path2978" class="fil1" d="M2.08 85.72c44.93,-44.92 80.81,-58.79 113.37,-65.13 4.31,-0.84 5.12,-10.25 5.12,-10.25 0,0 0.6,6.93 3.62,7.84 3.02,0.91 6.93,-10.85 6.93,-10.85 0,0 -3.62,10.55 0,11.16 3.62,0.6 10.25,-10.25 10.25,-10.25 0,0 -2.71,9.35 -0.9,9.95 1.81,0.6 10.85,-13.57 10.85,-13.57 0,0 -5.43,9.35 -0.3,10.25 5.13,0.9 12.61,-6.38 12.61,-6.38 0,0 -5.88,6.66 -3.26,7.58 11.16,3.92 20.18,-10.58 20.18,-10.58 0,0 -2.09,6.36 -7.52,13.29 11.76,3.01 20.49,-14.7 20.49,-14.7l-8.73 17.71c4.52,2.41 22.62,-18.39 22.62,-18.39 0,0 -9.35,16.28 -14.78,19.6 3.01,2.41 13.87,-7.24 13.87,-7.24 0,0 -8.74,10.85 -5.43,11.46 4.82,3.92 22.61,-20.2 22.61,-20.2 0,0 -6.93,14.17 -17.18,25.33 8.57,4.29 29.85,-23.22 29.85,-23.22 0,0 -0.6,8.74 -15.98,22.61 11.46,-1.51 26.23,-23.22 26.23,-23.22 0,0 -5.43,16.28 -18.39,27.74 11.25,-1.17 29.25,-28.94 29.25,-28.94 0,0 -6.93,19.3 -21.1,30.45 15.68,3.47 38.29,-19.9 38.29,-19.9 0,0 -8.9,16.58 -20.5,23.37 12.97,4.97 30.76,-15.53 30.76,-15.53 0,0 -17.79,27.44 -46.13,26.23 -9.3,-0.39 -37.43,-28.21 -97.69,-25.93 -79.6,3.02 -96.48,36.78 -139,59.7z"/>
   <path id="path2982" class="fil0" d="M3.92 82.31c44.93,-44.92 80.81,-58.79 113.37,-65.13 4.31,-0.84 5.13,-10.25 5.13,-10.25 0,0 0.6,6.94 3.62,7.84 3.01,0.9 6.93,-10.85 6.93,-10.85 0,0 -3.62,10.55 0,11.16 3.62,0.6 10.25,-10.25 10.25,-10.25 0,0 -2.71,9.35 -0.91,9.95 1.81,0.6 10.85,-13.57 10.85,-13.57 0,0 -5.43,9.35 -0.3,10.25 5.13,0.91 12.61,-6.38 12.61,-6.38 0,0 -5.88,6.66 -3.26,7.58 11.16,3.92 20.18,-10.58 20.18,-10.58 0,0 -2.09,6.36 -7.52,13.29 11.76,3.02 20.49,-14.7 20.49,-14.7l-8.73 17.72c4.52,2.41 22.61,-18.39 22.61,-18.39 0,0 -9.35,16.28 -14.77,19.6 3.01,2.41 13.87,-7.24 13.87,-7.24 0,0 -8.74,10.86 -5.43,11.46 4.82,3.92 22.61,-20.2 22.61,-20.2 0,0 -6.94,14.17 -17.18,25.33 8.57,4.29 29.85,-23.22 29.85,-23.22 0,0 -0.6,8.75 -15.98,22.62 11.46,-1.51 26.23,-23.22 26.23,-23.22 0,0 -5.43,16.28 -18.39,27.74 11.25,-1.17 29.25,-28.94 29.25,-28.94 0,0 -6.93,19.3 -21.1,30.45 15.68,3.47 38.29,-19.9 38.29,-19.9 0,0 -8.89,16.58 -20.5,23.37 12.97,4.97 30.76,-15.53 30.76,-15.53 0,0 -17.79,27.44 -46.13,26.23 -9.3,-0.4 -37.43,-28.21 -97.69,-25.93 -79.6,3.02 -96.48,36.78 -139,59.7z"/>
   <path id="path2886" class="fil0" d="M107.91 41.62c1.29,-2.86 3.24,-4.26 5.14,-6.65 -0.21,-0.57 -0.67,-2.42 -0.67,-3.07 0,-2.87 2.33,-5.2 5.2,-5.2 0.68,0 1.32,0.13 1.92,0.37 8.61,-6.56 19.94,-9.42 31.33,-6.87 1.04,0.23 2.06,0.52 3.06,0.83 -11.26,-1.56 -23.94,2.43 -32.57,9.39 0.26,0.62 0.99,2.4 0.99,3.11 0,2.87 -1.86,3.57 -4.73,3.57 -0.65,0 -1.28,-0.12 -1.85,-0.35 -1.95,2.62 -4.34,7.6 -5.51,10.72 4.77,4.27 9.08,5.82 14.7,7.92 -0.01,-0.27 0.19,-0.52 0.19,-0.79 0,-8.66 7.62,-15.7 16.28,-15.7 7.76,0 14.19,5.64 15.44,13.05 3.87,-2.46 7.62,-4.35 10.47,-8 -0.67,-0.81 -1.38,-3.11 -1.38,-4.24 0,-2.61 2.11,-4.72 4.72,-4.72 0.37,0 0.72,0.05 1.07,0.13 1.45,-2.98 2.54,-6.13 3.24,-9.39 -13.54,-10.03 -39.74,-8.66 -39.74,-8.66 0,0 -20.85,-1.09 -34.96,5.79 0.94,6.81 3.66,13.28 7.66,18.75z"/>
   <path id="path2890" class="fil0" d="M172.63 37.71c0.96,0.86 1.48,1.62 1.89,2.36 1.27,2.28 -1.27,4.36 -3.88,4.36 -0.26,0 -0.52,-0.04 -0.77,-0.08 -2.94,4.59 -8.08,10.47 -12.65,13.43 7.01,1.15 13.61,3.95 18.87,8.29 3.83,-6.86 6.76,-16.76 6.76,-25.18 0,-6.4 -2.83,-11.1 -7.09,-14.54 -0.22,3.43 -2.05,8.23 -3.13,11.35z"/>
   <path id="path2894" class="fil0" d="M115.77 81.15c2.34,-6.45 8.08,-11.44 13.51,-15.83 -0.79,-1.09 -1.99,-3.78 -2.48,-5.06 -6.62,-2.01 -12.49,-5.79 -17.03,-10.78 -0.03,0.15 -0.08,0.29 -0.11,0.43 -0.86,3.84 -1.01,7.68 -0.59,11.43 3.17,0.59 5.57,3.37 5.57,6.71 0,1.98 -1.74,4.86 -3.09,6.11 1.47,3.16 2.47,4.69 4.22,6.99z"/>
   <path id="path2898" class="fil0" d="M115.36 86.56c-2.78,-2.77 -4.71,-8.29 -6.52,-11.76 -0.34,0.05 -0.68,0.09 -1.04,0.09 -3.78,0 -7.73,-3.17 -6.84,-6.84 0.5,-2.03 1.9,-3.36 4.18,-4.46 -0.52,-4.2 -0.66,-10.25 0.32,-14.62 0.28,-1.25 0.87,-1.84 1.26,-3.03 -4.17,-6.1 -6.86,-14.1 -6.86,-22.04 0,-0.29 0.01,-0.58 0.02,-0.86 -7.04,3.53 -12.32,9.09 -12.32,17.85 0,19.37 11.16,38.37 27.76,45.82 0.01,-0.05 0.02,-0.11 0.04,-0.16z"/>
   <path id="path2902" class="fil0" d="M156.18 59.78c-2.15,6.1 -7.95,10.48 -14.78,10.48 -3.66,0 -7.01,-1.26 -9.68,-3.36 -5.49,4.28 -10.48,11.8 -13.01,18.32 1.14,1.22 1.93,2.23 3.21,3.31 3.84,1 9.14,0 13.3,0 16.74,0 31.56,-7.45 40.06,-20.5 -5.65,-3.91 -12.32,-7.64 -19.09,-8.26z"/>
   <path id="path3022" class="fil0" d="M30.16 159.27c2.43,0 4.73,0.58 5.88,1.73 0.19,1.79 -1.41,4.67 -2.43,4.67 -1.21,-0.45 -2.37,-0.7 -3.77,-0.7 -5.82,0 -8.69,6.01 -8.69,11.95 0,3.71 1.28,5.94 4.22,5.94 3.13,0 6.33,-2.11 8.12,-3.71 0.45,0.32 1.02,1.34 1.02,2.49 0,1.28 -0.38,2.49 -1.53,3.64 -2.05,2.05 -5.5,3.77 -10.48,3.77 -5.75,0 -9.71,-3.26 -9.71,-10.87 0,-9.97 6.58,-18.92 17.32,-18.92l0.06 0z"/>
   <path id="path3026" class="fil0" d="M48.95 182.53c3.13,0 8.82,-5.5 10.42,-15.98 0.06,-0.64 0.13,-0.83 0.26,-1.47 -0.7,-0.26 -1.66,-0.45 -2.62,-0.45 -2.37,0 -4.79,0.7 -6.97,3.64 -2.24,3.13 -3.2,7.03 -3.2,10.16 0,2.68 0.77,4.09 2.05,4.09l0.06 0zm-10.29 -2.88c0,-3.77 1.28,-10.36 6.07,-15.15 4.09,-4.22 9.08,-5.24 13.62,-5.24 3,0 7.09,0.96 9.65,1.47 -0.64,2.81 -2.17,13.42 -2.88,19.56 -0.32,2.62 -0.45,6.26 -0.32,7.61 -2.11,0.9 -6.07,1.15 -7.16,1.15 -0.57,0 -0.7,-2.62 -0.51,-5.11 0.06,-0.83 0.19,-2.05 0.25,-2.56 -2.49,4.16 -7.41,7.67 -12.59,7.67 -3.71,0 -6.14,-3.07 -6.14,-9.33l0 -0.06 0 0z"/>
   <path id="path3030" class="fil0" d="M83.91 159.27c2.62,0 5.11,0.96 6.26,2.17 -0.06,1.79 -1.47,4.79 -3.71,3.96 -0.96,-0.32 -1.92,-0.57 -3.2,-0.57 -1.73,0 -3.2,0.77 -3.2,2.36 0,1.21 0.9,2.11 5.18,5.11 3.07,2.24 4.28,4.22 4.28,7.03 0,4.67 -4.41,9.72 -12.08,9.72 -3.13,0 -5.88,-1.21 -6.78,-2.49 -1.15,-1.92 -0.26,-5.69 1.02,-5.05 1.66,0.83 4.41,1.73 6.65,1.73 2.11,0 3.45,-0.96 3.45,-2.24 0,-1.08 -0.96,-2.05 -4.86,-4.79 -3.26,-2.43 -4.28,-4.67 -4.28,-7.22 0,-5.3 4.54,-9.72 11.19,-9.72l0.06 0z"/>
   <path id="path3034" class="fil0" d="M105.96 159.27c2.62,0 5.11,0.96 6.27,2.17 -0.06,1.79 -1.47,4.79 -3.71,3.96 -0.96,-0.32 -1.92,-0.57 -3.2,-0.57 -1.73,0 -3.2,0.77 -3.2,2.36 0,1.21 0.89,2.11 5.18,5.11 3.07,2.24 4.28,4.22 4.28,7.03 0,4.67 -4.41,9.72 -12.08,9.72 -3.13,0 -5.88,-1.21 -6.77,-2.49 -1.15,-1.92 -0.26,-5.69 1.02,-5.05 1.66,0.83 4.41,1.73 6.65,1.73 2.11,0 3.45,-0.96 3.45,-2.24 0,-1.08 -0.96,-2.05 -4.86,-4.79 -3.26,-2.43 -4.28,-4.67 -4.28,-7.22 0,-5.3 4.54,-9.72 11.19,-9.72l0.06 0z"/>
   <path id="path3038" class="fil0" d="M126.09 182.53c3.13,0 8.82,-5.5 10.42,-15.98 0.06,-0.64 0.13,-0.83 0.26,-1.47 -0.7,-0.26 -1.66,-0.45 -2.62,-0.45 -2.36,0 -4.79,0.7 -6.97,3.64 -2.24,3.13 -3.2,7.03 -3.2,10.16 0,2.68 0.77,4.09 2.05,4.09l0.06 0zm-10.29 -2.88c0,-3.77 1.28,-10.36 6.07,-15.15 4.09,-4.22 9.08,-5.24 13.62,-5.24 3,0 7.1,0.96 9.65,1.47 -0.64,2.81 -2.17,13.42 -2.88,19.56 -0.32,2.62 -0.45,6.26 -0.32,7.61 -2.11,0.9 -6.07,1.15 -7.16,1.15 -0.57,0 -0.7,-2.62 -0.51,-5.11 0.06,-0.83 0.19,-2.05 0.26,-2.56 -2.49,4.16 -7.41,7.67 -12.59,7.67 -3.71,0 -6.14,-3.07 -6.14,-9.33l0 -0.06 0 0z"/>
   <path id="path3042" class="fil0" d="M159.58 167.58c2.94,-4.73 6.78,-8.31 12.15,-8.31 4.54,0 6.01,4.22 5.18,10.23 -0.45,2.81 -1.21,6.84 -1.73,10.55 -0.45,3.13 -0.77,5.94 -0.7,7.86 -1.66,0.83 -6.52,1.15 -7.61,1.15 -0.45,0 -0.51,-3.52 0.06,-7.22 0.51,-3.07 1.6,-8.63 2.11,-11.82 0.32,-1.85 0.26,-4.09 -1.53,-4.09 -2.37,0 -7.99,3.77 -10.8,19.24 -0.19,1.28 -0.7,2.05 -1.41,2.49 -0.96,0.58 -3,1.09 -7.16,1.15 0.77,-3.9 1.98,-11.89 2.88,-17.77 0.83,-5.37 1.15,-8.82 0.96,-10.16 1.09,-0.38 6.78,-1.6 7.41,-1.6 0.71,0 0.83,1.98 0.19,6.78 -0.06,0.45 -0.13,1.15 -0.19,1.53l0.19 0z"/>
   <path id="path3046" class="fil0" d="M192.05 182.47c2.81,0 8.5,-5.24 10.1,-14.51 0.06,-0.51 0.26,-1.47 0.38,-2.05 -0.83,-0.77 -1.92,-1.28 -3.64,-1.28 -6.46,0 -9.33,7.73 -9.33,13.3 0,3 1.02,4.54 2.43,4.54l0.06 0zm-4.22 6.58c-4.09,0 -6.65,-3.64 -6.65,-9.91 0,-10.36 6.45,-19.88 17.32,-19.88 1.92,0 3.64,0.51 4.73,1.15 0.58,-2.94 1.92,-12.02 1.98,-14.7 1.79,-0.32 5.63,-0.89 7.35,-0.89 0.71,0 0.9,0.7 0.64,2.3 -1.54,9.59 -4.28,28 -4.79,32.09 -0.38,3.45 -0.45,6.84 -0.38,8.76 -2.04,0.89 -6.2,1.09 -7.29,1.09 -0.45,0 -0.7,-2.94 -0.58,-5.56 0.07,-0.83 0.19,-2.05 0.19,-2.24 -3.2,5.24 -7.61,7.8 -12.46,7.8l-0.06 0z"/>
   <path id="path3050" class="fil0" d="M225.28 168.47c3.39,-7.54 7.41,-9.21 10.04,-9.21 0.83,0 2.11,0.51 2.68,1.15 0.26,2.11 -1.4,6.33 -2.88,7.93 -0.77,-0.38 -1.72,-0.77 -2.81,-0.77 -2.17,0 -6.46,3.39 -9.14,17.96 -0.19,1.22 -0.58,1.73 -1.28,2.05 -1.09,0.64 -5.37,1.15 -7.41,1.21 0.96,-5.24 2.62,-15.92 3.26,-22.18 0.19,-1.6 0.25,-4.54 0.13,-5.69 1.21,-0.58 6.01,-1.66 7.09,-1.66 0.58,0 1.02,3.52 0.13,9.21l0.19 0z"/>
   <path id="path3054" class="fil0" d="M247.84 182.53c3.13,0 8.82,-5.5 10.42,-15.98 0.06,-0.64 0.13,-0.83 0.26,-1.47 -0.7,-0.26 -1.66,-0.45 -2.62,-0.45 -2.37,0 -4.79,0.7 -6.97,3.64 -2.24,3.13 -3.2,7.03 -3.2,10.16 0,2.68 0.77,4.09 2.05,4.09l0.06 0zm-10.29 -2.88c0,-3.77 1.28,-10.36 6.07,-15.15 4.09,-4.22 9.08,-5.24 13.62,-5.24 3,0 7.09,0.96 9.65,1.47 -0.64,2.81 -2.17,13.42 -2.88,19.56 -0.32,2.62 -0.45,6.26 -0.32,7.61 -2.11,0.9 -6.07,1.15 -7.16,1.15 -0.57,0 -0.7,-2.62 -0.51,-5.11 0.06,-0.83 0.19,-2.05 0.26,-2.56 -2.49,4.16 -7.41,7.67 -12.59,7.67 -3.71,0 -6.14,-3.07 -6.14,-9.33l0 -0.06 0 0z"/>
  </g>
 </g>
</svg>
