<?xml version="1.0" encoding="UTF-8"?>
<!DOCTYPE svg PUBLIC "-//W3C//DTD SVG 1.1//EN" "http://www.w3.org/Graphics/SVG/1.1/DTD/svg11.dtd">
<!-- Creator: CorelDRAW -->
<svg xmlns="http://www.w3.org/2000/svg" xml:space="preserve" width="10.8701mm" height="8.2331mm" version="1.1" style="shape-rendering:geometricPrecision; text-rendering:geometricPrecision; image-rendering:optimizeQuality; fill-rule:evenodd; clip-rule:evenodd"
viewBox="0 0 39.56 29.96"
 xmlns:xlink="http://www.w3.org/1999/xlink"
 xmlns:xodm="http://www.corel.com/coreldraw/odm/2003">
 <defs>
  <style type="text/css">
   <![CDATA[
    .fil1 {fill:#03B3F2}
    .fil0 {fill:#1B1F23}
   ]]>
  </style>
 </defs>
 <g id="Capa_x0020_1">
  <metadata id="CorelCorpID_0Corel-Layer"/>
  <g id="_1687064789744">
   <path class="fil0" d="M3.15 6.45c-0.56,-0.22 -0.42,-0.22 -1.09,-0.02 -1.09,0.33 -2.09,1.15 -2.06,2.32 0.05,1.95 -0.06,19.3 0.34,19.78 0.2,0.24 0.63,0.41 1.05,0.26 0.41,-0.15 0.9,-0.1 1.38,-0.11 4.16,-0.09 8.57,0.14 12.8,0.11 0.55,-0 0.98,-0.14 1.31,0.18 0.59,0.57 0.9,0.77 2.01,0.91 1.11,0.14 2.72,0.13 3.53,-0.7 0.43,-0.45 0.28,-0.39 1.06,-0.35 4.53,0.25 9.75,-0.09 14.34,-0.05 1.35,0.01 1.46,-0.1 1.53,-1.43 -0.08,-3.91 0.96,-19.41 -1,-19.97 -0.78,-0.22 -1.39,-0.02 -1.62,-0.12 -0.25,-1.03 0.49,-2.53 -0.77,-2.83 -0.82,-0.19 -2.86,-0.47 -2.62,0.8 0.19,0.33 1.83,0.16 2.04,0.39 0.25,0.24 0.18,17.09 0.03,17.9 -1.32,0.6 -8.39,-0.54 -13.98,2.22 -0.24,0.12 -0.6,0.29 -0.78,0.42 -0.2,0.15 -0.41,0.44 -0.69,0.46 -0.03,-0.56 -0.09,-3.81 -0.18,-5.19 -0.03,-0.42 -0.06,-0.46 -0.55,-0.43 -0.14,0.01 -0.13,0.26 -0.17,0.42 -0.28,0.98 -0.12,2.74 -0.29,5.13 -5.75,-3.2 -13.92,-2.99 -14.23,-3.18 -0.08,-0.51 0.01,-3.6 -0.01,-4.51 -0.04,-1.47 -0.06,-2.98 -0.06,-4.49 0,-2.7 -0.17,-5.07 -0.11,-7.9 0.01,-0.38 -0.1,-0.89 0.16,-1.07 0.33,-0.24 3.54,-0.33 3.93,-0.32 2.39,0.04 4.94,0.43 7.11,1.39 0.97,0.43 0.5,0.33 1.02,-0.01 0.16,-0.1 0.22,-0.08 0.36,-0.17 0.3,-0.19 0.18,-0.54 -0.03,-0.69 -1.97,-1.46 -11.67,-2.52 -13.54,-0.98 -0.51,0.42 -0.1,0.57 -0.23,1.82zm-1 3.08l0.01 3.59c0.02,2.14 0.1,4.11 0.07,6.28l-0.06 7.05c0.46,0.09 4.33,-0.66 5.16,-0.75 2.09,-0.23 5.37,0.03 7.42,0.52 0.37,0.09 1.39,0.3 1.71,0.18 -0.76,-0.56 -3.82,-1.3 -4.99,-1.45 -2.02,-0.26 -4.08,-0.32 -6.12,-0.32 -0.76,0 -1.14,0.11 -1.91,-0.02 -0.08,-0.64 -0.04,-4.45 -0.03,-5.56 0.01,-1.2 -0.08,-2.51 -0.07,-3.83 0,-1.39 -0.03,-2.86 -0.07,-4.25 -0.03,-0.93 -0.34,-3.19 -0.25,-3.83 -0.15,0.09 -0.76,0.63 -0.84,0.84 -0.1,0.25 -0.04,1.21 -0.04,1.55zm20.52 16.93c0.35,0.27 1.21,-0.09 1.7,-0.18 0.69,-0.13 3.15,-0.6 3.71,-0.62 3.2,-0.09 5.71,0.06 8.8,0.8l0.65 0.19c0.28,0.04 0.07,0.05 0.16,-0.04 0.29,-0.27 0.11,-17.83 -0.02,-18.28 -0.3,-0.03 -0.65,-0.06 -0.94,0.02 -0.11,2.62 -0.09,5.37 -0.13,8.01 -0.03,2.68 0.16,5.37 -0.06,8.03 -0.04,0.44 -0.11,0.44 -0.56,0.44 -1.01,0.01 -1.87,-0.11 -2.93,-0.16 -1.14,-0.05 -2.85,-0.05 -3.97,0.1 -1.09,0.15 -5.89,1.24 -6.41,1.69z"/>
   <path class="fil0" d="M24.51 19.14c0.15,0.56 -0.18,1.87 0.04,2.29 0.39,0.1 0.74,0.28 1.05,-0.04l0.03 -2.22c1.46,-0.22 1.72,-0.01 3.48,-0.65 0.89,-0.32 2.2,-0.73 2.84,-1.36 0.6,-0.59 0.53,-0.92 0.54,-1.53 0.01,-0.7 0.02,-1.4 0.04,-2.09 0.04,-1.36 -0.01,-2.81 -0.01,-4.19 0,-1.17 0.12,-5.06 -0.01,-6.1 -0.11,-0.92 -1.27,-1.73 -2.07,-2.13 -2.34,-1.16 -6.31,-1.48 -8.87,-0.69 -0.76,0.24 -2.42,0.88 -2.89,1.32 -1.16,1.08 -0.81,1.43 -0.81,3.23 -0.01,3.29 -0.09,7.09 -0,10.35 0.02,0.8 -0.07,1.18 0.36,1.7 1.13,1.39 4.45,1.94 6.28,2.1z"/>
   <path class="fil1" d="M23.87 1.29c-1.18,0.08 -2.78,0.34 -3.73,0.78 -1.08,0.5 -2.02,1.61 -0.77,2.59 0.46,0.36 0.76,0.56 1.4,0.82 2.54,1.01 7.21,1.08 9.56,-0.23 0.47,-0.26 0.9,-0.66 1.2,-1.02 0.54,-0.66 0.24,-0.87 -0.26,-1.37 -1.4,-1.38 -4.92,-1.75 -7.4,-1.58z"/>
   <path class="fil1" d="M31.34 6.08c-0.33,-0.01 -1.47,0.35 -1.83,0.46 -3.27,0.99 -6.38,0.99 -9.48,-0.47 -1.19,-0.56 -1.1,-0.43 -0.97,1.84 0.03,0.45 0.03,0.66 0.31,0.87 2.27,1.7 6.44,1.92 9.1,1.08 0.67,-0.21 2.71,-1.05 2.88,-1.67 0.15,-0.56 0.16,-1.58 -0.01,-2.1z"/>
   <path class="fil1" d="M31.16 13.93c-0.35,-0.11 -1.22,0.37 -1.63,0.53 -3.05,1.17 -6.44,1.03 -9.33,-0.41 -0.45,-0.22 -1.24,-0.76 -1.27,0.14 -0,0.1 0.26,1.88 0.3,1.99 0.3,0.8 1.95,1.28 2.95,1.52 2.79,0.66 6,0.48 8.39,-1.15 0.22,-0.15 0.46,-0.28 0.56,-0.59 0.17,-0.5 0.27,-1.59 0.03,-2.04z"/>
   <path class="fil1" d="M31.28 9.98c-0.35,-0.03 -1.24,0.41 -1.61,0.55 -3.11,1.11 -6.41,1.14 -9.43,-0.29 -0.42,-0.2 -1.35,-0.81 -1.31,0.25 0.02,0.41 0.22,1.51 0.36,1.91 0.13,0.38 0.79,0.64 1.32,0.9 2,0.99 7.96,0.87 10.35,-0.54 0.28,-0.16 0.28,-0.37 0.34,-0.79 0.09,-0.62 0.31,-1.52 -0.01,-1.98z"/>
   <path class="fil0" d="M7.9 11.89c-0.4,0.04 -0.99,0.1 -1.14,0.37 -0.29,0.5 0.05,0.78 0.46,0.9 2.19,0.63 4.41,-0.2 7.91,1.25 0.35,0.14 0.82,0.44 0.99,-0.1 0.16,-0.55 -0.07,-0.9 -0.47,-1.07 -0.62,-0.27 -1.68,-0.51 -2.37,-0.68 -1.52,-0.37 -3.78,-0.82 -5.37,-0.67z"/>
   <path class="fil0" d="M7.16 15.15c-0.79,0.2 -0.47,0.81 -0.39,0.91 0.22,0.27 0.92,0.28 1.32,0.28 2.12,-0.05 3.33,0.11 5.36,0.7 0.4,0.12 2.09,0.74 2.34,0.68 0.3,-0.07 0.58,-0.57 0.39,-1.02 -0.11,-0.25 -0.73,-0.4 -1.05,-0.49 -2.04,-0.56 -6.11,-1.53 -7.97,-1.06z"/>
   <path class="fil0" d="M7.48 18.11c-0.53,0.03 -0.88,0.1 -0.8,0.68 0.13,0.9 2.08,0.37 3.91,0.63 3.98,0.56 5.45,2.22 5.59,0.58 0.05,-0.58 -0.41,-0.5 -0.86,-0.65 -2.42,-0.79 -5.25,-1.41 -7.85,-1.24z"/>
   <path class="fil0" d="M7.1 8.93c-0.61,0.17 -0.5,0.75 -0.26,0.91 0.24,0.16 1.04,0.19 1.37,0.19 1.68,0.04 7.7,1.48 7.71,1.48 0.34,-0.08 0.9,-1.31 -0.72,-1.6 -2.06,-0.36 -6.06,-1.55 -8.1,-0.98z"/>
  </g>
 </g>
</svg>
