<?xml version="1.0" encoding="UTF-8"?>
<!DOCTYPE svg PUBLIC "-//W3C//DTD SVG 1.1//EN" "http://www.w3.org/Graphics/SVG/1.1/DTD/svg11.dtd">
<!-- Creator: CorelDRAW -->
<svg xmlns="http://www.w3.org/2000/svg" xml:space="preserve" width="32.0061mm" height="24.5483mm" version="1.1" style="shape-rendering:geometricPrecision; text-rendering:geometricPrecision; image-rendering:optimizeQuality; fill-rule:evenodd; clip-rule:evenodd"
viewBox="0 0 315.63 242.08"
 xmlns:xlink="http://www.w3.org/1999/xlink"
 xmlns:xodm="http://www.corel.com/coreldraw/odm/2003">
 <defs>
  <style type="text/css">
   <![CDATA[
    .str0 {stroke:#FEFEFE;stroke-width:1.97;stroke-miterlimit:22.9256}
    .fil0 {fill:none;fill-rule:nonzero}
    .fil1 {fill:#FEFEFE;fill-rule:nonzero}
   ]]>
  </style>
 </defs>
 <g id="Capa_x0020_1">
  <metadata id="CorelCorpID_0Corel-Layer"/>
  <g id="_1689410410192">
   <path class="fil0 str0" d="M158.79 1.75l4.84 9.1c1.09,1.68 2.27,3.16 3.65,4.55 4.07,4.02 7.86,8.31 11.35,12.85 8.2,10.76 13.74,22.73 17.68,35.67 2.37,7.9 3.65,16.01 3.75,24.21 0.4,24.51 -8.01,45.55 -24.94,63.04 -2.75,2.77 -5.73,5.32 -8.9,7.6 -1.68,0 -2.47,-1.28 -3.16,-2.47 -1.26,-2.2 -2.1,-4.61 -2.47,-7.11 -0.6,-2.97 -0.99,-5.93 -0.79,-8.98l0 -1.38c-0.13,-0.32 -1.61,-136.36 -1.02,-137.06l0 0z"/>
   <path class="fil1" d="M158.79 1.46c-0.19,-0.4 -0.4,-0.1 -0.6,0.1 0.1,1.98 -0.6,3.75 -1.68,5.44 -1.19,1.68 -2.77,2.97 -4.35,4.35 -8.78,7.6 -15.7,16.8 -21.23,27.07 -7.38,13.83 -11.17,28.65 -12.24,44.27 -0.49,5.63 1.78,25.49 3.56,31.21 4.84,15.22 13.53,27.97 24.81,39.03 2.77,2.67 5.73,5.14 8.78,7.52 0.9,0 0.99,-0.79 1.19,-1.38 0.4,-1.26 0.69,-2.54 0.9,-3.85l1.98 -14.81 -1.11 -138.96z"/>
   <path class="fil1" d="M163.63 164.77c0.19,-2.27 1.28,-4.14 2.47,-6.02 -1.19,-0.49 -2.08,-1.48 -2.77,-2.56 -0.6,-1.04 -1.09,-2.13 -1.48,-3.27 -1.38,-4.14 -1.68,-8.51 -2.08,-12.74l0 -2.56c-0.49,0.4 -0.6,3.75 -0.6,4.25 -0.28,4.49 -0.88,8.93 -1.78,13.34 -0.29,1.78 -0.49,3.56 -1.59,5.14 0,0.19 0,0.4 0.1,0.69 1.78,5.24 2.27,10.57 2.56,16.01l0 1.98c0,2.37 -0.1,1.87 1.87,2.67 0.79,0.29 1.68,0.4 2.47,0.99 0.6,0 0.69,-0.49 0.69,-0.9l-0.3 -3.27 0 -9.1c-0.09,-1.59 0.2,-3.16 0.41,-4.66l0 -0z"/>
   <path class="fil1" d="M11.81 209l0 8.18c0,0.33 0,0.66 0.06,0.97 0.1,0.97 0.7,1.57 1.57,1.84 0.81,0.21 1.64,0.37 2.48,0.48 0.48,0.06 0.64,0.27 0.7,0.79 0.06,1.84 -0.1,2.05 -1.88,1.93 -4.14,-0.21 -8.3,-0.27 -12.44,0l-0.39 0c-1.3,0.06 -1.39,-0.06 -1.39,-1.35 0,-0.21 0.06,-0.48 0.06,-0.7 0,-0.39 0.27,-0.6 0.64,-0.6 0.87,-0.1 1.66,-0.33 2.48,-0.48 1.12,-0.27 1.78,-0.97 1.88,-2.11 0.15,-1.24 0.15,-2.53 0.15,-3.77l0.06 -14.43c0.04,-0.85 -0.43,-1.64 -1.18,-2.05 -0.97,-0.54 -2.01,-0.97 -3.08,-1.3 -0.33,-0.1 -0.64,-0.15 -0.91,-0.33 -0.79,-0.39 -0.81,-1.08 -0.06,-1.51 0.27,-0.15 0.6,-0.27 0.91,-0.33 3.26,-0.48 6.48,-1.3 9.57,-2.42 0.64,-0.21 0.81,-0.15 0.87,0.48 0.06,0.39 0,0.87 -0.06,1.24 -0.1,0.7 -0.1,1.39 -0.1,2.05 0,0.27 0.06,0.54 0.33,0.7 0.27,0.15 0.54,0 0.79,-0.15 1.12,-0.87 2.26,-1.66 3.5,-2.36 1.78,-0.97 3.66,-1.84 5.71,-2.11 2.48,-0.33 4.62,0.33 6.52,1.93 0.77,0.7 1.47,1.49 2.05,2.36 0.54,0.79 0.6,0.81 1.3,0.27 2.05,-1.51 4.2,-2.84 6.52,-3.83 2.42,-1.02 4.89,-1.18 7.37,-0.33 2.53,0.91 4.26,2.69 5.28,5.11 0.87,1.93 1.24,3.95 1.24,6.04l0 14.43c0,0.97 0.39,1.57 1.35,2.05 1.03,0.39 2.15,0.6 3.23,0.81 0.7,0.15 0.7,0.15 0.7,0.87 -0.1,1.78 -0.27,1.88 -1.99,1.78 -2.14,-0.12 -4.33,-0.19 -6.48,-0.19 -2.15,0 -4.34,0.07 -6.48,0.19 -0.87,0.06 -0.87,0.06 -0.91,-0.81l0 -0.27c-0.06,-1.45 -0.06,-1.45 1.35,-1.78l1.39 -0.39c0.97,-0.23 1.66,-1.1 1.66,-2.11l0.15 -4.04 -0.1 -10.54c-0.04,-0.95 -0.23,-1.88 -0.6,-2.75 -1.35,-3.29 -4.31,-4.47 -7.16,-4.14 -2.15,0.21 -4.04,1.08 -5.82,2.32 -0.39,0.27 -0.64,0.6 -0.6,1.12 0.48,3.44 0.15,6.89 0.21,10.33l0 7.49c0,1.35 0.54,1.99 1.84,2.32l2.48 0.54c0.39,0.06 0.6,0.21 0.6,0.64l0 0.39c-0.06,1.51 -0.15,1.57 -1.66,1.57 -4.31,-0.21 -8.61,-0.15 -12.86,0 -1.45,0.06 -1.57,-0.1 -1.51,-1.57 0.06,-0.87 0.15,-0.91 0.97,-1.08l1.78 -0.33c1.57,-0.33 2.15,-0.91 2.26,-2.59l0.15 -3.62 -0.1 -10.81c-0.1,-1.35 -0.39,-2.63 -1.12,-3.87 -1.08,-1.99 -2.77,-3.02 -5.07,-3.12 -2.32,-0.15 -4.35,0.7 -6.31,1.78 -1.35,0.79 -1.93,1.72 -1.84,3.29l0 7.85 -0.08 0.02zm101.43 0.33l0 7.58c0,0.54 0.04,1.08 0.1,1.61 0.04,0.73 0.58,1.35 1.3,1.51 0.93,0.27 1.88,0.43 2.84,0.48 0.54,0.06 0.64,0.27 0.7,0.7l0 0.39c-0.06,1.88 -0.27,2.11 -2.11,1.99 -4.1,-0.27 -8.18,-0.21 -12.26,0l-1.57 0.06c-0.33,0 -0.39,-0.15 -0.48,-0.39 -0.08,-0.37 -0.12,-0.75 -0.12,-1.13 0,-0.38 0.04,-0.76 0.12,-1.13 0.06,-0.33 0.27,-0.39 0.6,-0.48 0.79,-0.1 1.45,-0.27 2.21,-0.39 1.35,-0.33 1.84,-0.87 1.88,-2.26l0.15 -4.53 0 -13.25c0,-0.97 -0.39,-1.57 -1.24,-1.99 -0.97,-0.54 -1.99,-0.91 -3.08,-1.3 -0.33,-0.1 -0.64,-0.21 -0.91,-0.39 -0.7,-0.48 -0.79,-1.18 -0.1,-1.72 0.31,-0.25 0.68,-0.41 1.08,-0.43 3.44,-0.54 6.79,-1.3 10.02,-2.59 0.39,-0.15 0.54,-0.06 0.7,0.27 0.15,0.33 0.21,0.7 0.15,1.08l-0.15 2.53c0,0.33 -0.15,0.79 0.1,0.91 0.33,0.21 0.54,-0.27 0.81,-0.39 1.58,-1.34 3.35,-2.46 5.22,-3.33 1.66,-0.79 3.39,-1.3 5.32,-1.18 3.62,0.21 6.19,2.05 7.85,5.22 0.87,1.66 1.24,3.5 1.39,5.38l0.15 3.95 0.06 11.9c0.06,0.91 0.39,1.51 1.3,1.84 0.94,0.31 1.92,0.54 2.9,0.7 0.87,0.1 0.91,0.27 0.97,1.08l0 0.27c-0.1,1.84 -0.21,1.88 -2.05,1.78 -1.98,-0.1 -4.02,-0.16 -6.03,-0.16 -2,0 -4.04,0.06 -6.03,0.15 -0.54,0.06 -1.08,0 -1.57,0.06 -0.33,0 -0.54,-0.06 -0.6,-0.39 -0.1,-0.7 -0.21,-1.39 -0.06,-2.15 0.06,-0.33 0.21,-0.48 0.6,-0.54l2.48 -0.39c0.87,-0.21 1.35,-0.79 1.45,-1.57l0.1 -1.51 -0.06 -11.26c0,-1.3 -0.06,-2.59 -0.33,-3.87 -0.64,-2.77 -2.75,-4.72 -5.59,-5.01 -2.48,-0.27 -4.72,0.39 -6.79,1.72 -1.03,0.64 -1.45,1.57 -1.45,2.69l0 8.12c0,-0.15 0,-0.15 0.06,-0.15l-0.03 -0.11z"/>
   <path class="fil1" d="M270.88 194.1c-0.6,-3.93 -2.05,-7.43 -4.58,-10.5 -2.21,-2.71 -5.05,-4.82 -8.3,-6.13 -3.39,-1.39 -7,-1.84 -10.66,-1.93 -1.51,-0.06 -22.07,0.27 -23.58,0 -0.39,-0.06 -0.64,0.06 -0.87,0.39 -0.27,0.39 -0.54,0.81 -0.7,1.24 -0.64,1.45 -0.64,1.35 0.91,1.57 1.3,0.21 2.53,0.33 3.77,0.7 1.12,0.39 1.93,1.03 2.21,2.26 0.1,0.6 0.21,19.54 0.21,28.36l-0.21 6.31c-0.06,0.48 -0.1,0.97 -0.27,1.39 -0.21,0.64 -0.6,1.18 -1.24,1.45 -0.72,0.33 -1.47,0.54 -2.26,0.6 -1.45,0.15 -1.66,0.21 -2.15,1.84l-0.15 0.6c-0.1,0.7 -0.06,0.81 0.64,0.81l16.1 0.15 6.31 -0.1 4.35 -0.54c4.95,-0.91 9.36,-2.96 13.14,-6.25 2.15,-1.9 3.91,-4.2 5.16,-6.79 1.51,-3.02 2.15,-6.31 2.32,-9.63 0.29,-1.92 0.19,-3.85 -0.14,-5.78l0 0zm-7.8 7.64c-0.21,3.44 -0.91,6.79 -2.69,9.79 -2.26,3.93 -5.49,6.67 -9.96,7.64 -1.93,0.39 -3.87,0.6 -5.9,0.33 -1.45,-0.15 -2.84,-0.33 -4.2,-0.81 -2.42,-0.87 -3.29,-2.36 -3.33,-4.72l-0.06 -32.46c0,-1.93 0.87,-2.36 2.26,-2.42 2.11,-0.15 4.26,-0.1 6.34,0.1 2.24,0.21 4.43,0.75 6.52,1.57 1.55,0.64 2.98,1.53 4.26,2.63 2.9,2.48 4.84,5.59 5.9,9.25 0.87,2.96 1.03,5.98 0.87,9l-0.02 0.12zm52.54 5.28c0,-0.33 0,-0.6 -0.06,-0.91 -0.48,-2.96 -2.05,-5.22 -4.47,-6.94 -1.57,-1.12 -3.33,-1.88 -5.17,-2.42 -0.33,-0.1 -0.6,-0.21 -0.91,-0.27 0.06,-0.27 0.21,-0.33 0.39,-0.39 1.08,-0.54 2.11,-1.12 3.02,-1.93 1.66,-1.39 2.77,-3.11 3.33,-5.22 0.33,-1.12 0.33,-2.26 0.21,-3.44 -0.17,-2.8 -1.62,-5.38 -3.93,-7 -2.48,-1.84 -5.38,-2.59 -8.4,-2.63 -5.82,-0.1 -11.68,0 -17.49,0 -1.66,0 -3.33,0.1 -5.07,-0.15 -0.33,-0.06 -0.79,-0.15 -1.03,0.21 -0.39,0.7 -0.87,1.39 -1.02,2.21 -0.06,0.39 0.06,0.6 0.48,0.64l3.71 0.54c1.45,0.21 2.48,1.03 2.59,2.32 0.1,0.89 0.15,1.8 0.15,2.69l-0.1 10.06 -0.06 19.91c0,1.18 -0.15,2.32 -0.39,3.5 -0.12,0.77 -0.66,1.39 -1.39,1.61 -1.08,0.33 -2.11,0.64 -3.23,0.64 -0.62,-0.06 -1.2,0.33 -1.39,0.91 -0.21,0.48 -0.39,1.02 -0.48,1.51 -0.1,0.64 0.06,0.87 0.7,0.79 0.48,-0.06 18.24,0.39 21.59,0.06 1.99,-0.21 3.95,-0.48 5.92,-1.08 3.39,-1.08 6.52,-2.63 9,-5.28 2.05,-2.15 3.23,-4.74 3.33,-7.76 0.15,-0.7 0.15,-1.39 0.15,-2.15l0 0zm-26.12 -22.07l0.15 -4.31c0,-0.81 0.33,-1.18 1.12,-1.35 1.3,-0.27 2.59,-0.15 3.87,-0.1 1.3,0.1 2.53,0.27 3.83,0.64 2.36,0.7 4.2,2.05 5.28,4.31 0.48,1.03 0.75,2.15 0.75,3.29 0.06,1.51 -0.06,2.96 -0.64,4.41 -0.91,1.99 -2.36,3.29 -4.47,3.66 -2.11,0.39 -8.07,0.21 -9,0.21 -0.81,0 -0.87,-0.1 -0.87,-0.91l0 -5.07c-0.14,-1.57 -0.14,-3.15 -0.06,-4.74l0.02 -0.04zm17.49 28.96c-0.91,2.42 -2.59,4.1 -4.95,5.01 -1.3,0.48 -2.59,0.79 -3.95,0.7 -1.66,-0.06 -3.33,0 -5.01,-0.33 -2.26,-0.48 -3.29,-2.63 -3.44,-4.2 -0.27,-2.75 -0.1,-5.55 -0.15,-7.58l0 -7.1c0,-0.87 0.1,-1.12 1.02,-1.12l5.07 0.06 3.44 0.39c2.42,0.54 4.62,1.45 6.34,3.33 1.39,1.51 2.15,3.33 2.32,5.32 0.15,1.88 0.06,3.71 -0.64,5.49l-0.06 0.04z"/>
   <path class="fil1" d="M170.23 197.7l1.39 0.21c1.51,0.06 3.29,-0.48 3.83,-2.59 0.14,-0.5 0.22,-1.02 0.22,-1.54 0,-0.52 -0.07,-1.04 -0.22,-1.54 -0.33,0 -0.48,0.27 -0.64,0.39 -0.81,0.64 -1.72,1.03 -2.69,1.12 -1.93,0.21 -3.87,0.1 -5.77,-0.6l-2.63 -0.91c-1.84,-0.6 -3.77,-0.85 -5.71,-0.75 -2.75,0.21 -5.32,1.12 -7.76,2.42 -2.59,1.39 -4.41,3.5 -5.28,6.34 -0.48,1.66 -0.54,3.39 -0.33,5.11 0.54,3.93 2.59,6.67 6.25,8.12 0.21,0.06 0.39,0.15 0.6,0.21 0.48,0.27 0.54,0.54 0.1,0.91l-1.35 0.91 -3.23 1.99c-0.81,0.48 -0.91,0.87 -0.64,1.72 0.33,1.01 0.91,1.9 1.72,2.59 0.73,0.64 1.57,1.14 2.48,1.51 0.6,0.27 0.6,0.39 0.06,0.87l-3.08 2.21c-1.02,0.79 -2.05,1.57 -2.9,2.59 -0.92,0.98 -1.44,2.28 -1.44,3.62 0,0.41 0.05,0.82 0.14,1.21 0.41,1.88 1.37,3.56 2.81,4.84 1.39,1.3 3.1,2.23 4.95,2.69 3.02,0.87 6.13,0.91 9.21,0.33 4.41,-0.81 8.28,-2.77 11.3,-6.07 2.11,-2.21 3.33,-4.8 3.44,-7.87 0.25,-3.7 -2.22,-7 -5.82,-7.85l-2.9 -0.54 -8.88 -0.79c-0.97,-0.06 -1.93,-0.21 -2.75,-0.7 -1.03,-0.64 -1.3,-1.88 -0.64,-2.69 0.48,-0.6 1.08,-0.97 1.84,-1.03l1.72 -0.15c3.4,-0.34 6.6,-1.8 9.09,-4.14 1.33,-1.23 2.29,-2.83 2.75,-4.58 0.64,-2.32 0.64,-4.72 0.1,-7.08 -0.15,-0.6 -0.1,-0.64 0.64,-0.54l0.02 0.06zm-13.19 26.81c0.33,0.06 0.64,0 0.97,0 2.26,0.1 4.58,0.27 6.79,0.87 0.71,0.21 1.43,0.48 2.11,0.81 2.15,1.18 2.96,3.23 2.69,5.44 -0.33,2.42 -1.66,4.14 -3.77,5.28 -1.39,0.79 -2.96,1.12 -4.58,1.3 -0.6,0.06 -1.12,0 -1.72,0 -1.88,0.06 -3.71,-0.15 -5.49,-0.91 -1.24,-0.48 -2.26,-1.18 -3.17,-2.15 -1.88,-1.88 -2.77,-5.32 0.06,-8.12 1.72,-1.61 3.66,-2.73 6.13,-2.51l0 0zm6.15 -16.79c-1.12,2.84 -3.62,3.71 -6.07,3.33 -2.26,-0.33 -3.93,-1.57 -5.01,-3.62 -1.39,-2.75 -1.78,-5.59 -0.97,-8.55 0.6,-2.21 1.93,-3.87 4.31,-4.26 3.02,-0.54 5.9,0.54 7.43,3.56 0.79,1.45 1.12,3.23 1.12,5.77 -0.06,1.03 -0.27,2.42 -0.81,3.77l0 0zm-67.82 -3.68c-0.48,-2.9 -1.57,-5.55 -3.56,-7.76 -2.96,-3.29 -6.73,-4.72 -10.99,-4.74 -3.71,-0.06 -7.22,1.02 -10.33,2.96 -3.08,1.84 -5.32,4.78 -6.31,8.24 -0.91,3.11 -0.87,6.31 -0.15,9.48 1.88,8.51 8.45,12.17 16.31,11.63 2.32,-0.15 4.53,-0.91 6.62,-1.93 3.11,-1.45 5.38,-3.77 6.94,-6.83 1.24,-2.53 1.78,-5.22 1.72,-8.3l-0.25 -2.75zm-7.64 11.96c-0.79,2.48 -2.96,4.26 -5.55,4.53 -2.36,0.33 -4.58,-0.27 -6.56,-1.66 -1.43,-1.06 -2.59,-2.44 -3.39,-4.04 -2.21,-4.53 -2.59,-9.25 -1.45,-14.1 0.37,-1.51 1.14,-2.86 2.26,-3.93 1.99,-1.84 4.31,-2.26 6.89,-1.72 2.48,0.54 4.35,1.88 5.9,3.93 1.55,2.05 2.26,4.41 2.69,6.89 0.21,1.24 0.21,2.53 0.27,3.33 0,2.59 -0.21,4.72 -1.03,6.79l-0.04 0zm125.26 -11.51c-0.39,-3.11 -1.57,-5.98 -3.77,-8.34 -2.9,-3.17 -6.67,-4.53 -10.87,-4.59 -3.62,-0.06 -6.94,0.97 -10.02,2.75 -3.44,2.05 -5.82,4.95 -6.73,8.88 -1.08,4.29 -0.64,8.82 1.3,12.81 1.78,3.77 4.8,6.19 8.78,7.27 4.41,1.18 8.61,0.64 12.71,-1.35 3.56,-1.72 6.07,-4.41 7.54,-8.07 0.87,-2.15 1.18,-4.47 1.24,-7.16 0.04,-0.48 -0.08,-1.35 -0.17,-2.21zm-7.43 10.81c-0.87,2.9 -2.69,4.8 -5.76,5.22 -2.26,0.33 -4.41,-0.21 -6.35,-1.51 -1.66,-1.12 -2.84,-2.63 -3.71,-4.41 -0.97,-1.88 -1.51,-3.87 -1.72,-5.92 -0.33,-2.53 -0.33,-5.01 0.27,-7.54 0.12,-0.5 0.27,-0.99 0.48,-1.45 1.51,-3.77 4.84,-5.49 8.78,-4.62 2.63,0.6 4.62,2.05 6.13,4.26 1.45,2.15 2.15,4.53 2.48,7.08 0.15,1.02 0.21,2.11 0.15,3.02 0,2.11 -0.15,4.04 -0.79,5.92l0.04 -0.04z"/>
  </g>
 </g>
</svg>
