<?xml version="1.0" encoding="UTF-8"?>
<!DOCTYPE svg PUBLIC "-//W3C//DTD SVG 1.1//EN" "http://www.w3.org/Graphics/SVG/1.1/DTD/svg11.dtd">
<!-- Creator: CorelDRAW -->
<svg xmlns="http://www.w3.org/2000/svg" xml:space="preserve" width="29.5368mm" height="20.1116mm" version="1.1" style="shape-rendering:geometricPrecision; text-rendering:geometricPrecision; image-rendering:optimizeQuality; fill-rule:evenodd; clip-rule:evenodd"
viewBox="0 0 219.36 149.36"
 xmlns:xlink="http://www.w3.org/1999/xlink"
 xmlns:xodm="http://www.corel.com/coreldraw/odm/2003">
 <defs>
  <style type="text/css">
   <![CDATA[
    .fil1 {fill:#FEFEFE}
    .fil0 {fill:#FEFEFE;fill-rule:nonzero}
   ]]>
  </style>
 </defs>
 <g id="Capa_x0020_1">
  <metadata id="CorelCorpID_0Corel-Layer"/>
  <g id="_1688089652208">
   <path class="fil0" d="M52.73 136.08l-8.46 0c-0.29,-14.28 -1.11,-27.75 -2.46,-40.41l0 0 -12.96 40.41 -6.44 0 -12.82 -40.41 0 0c-0.94,12.13 -1.53,25.6 -1.79,40.41l-7.8 0c0.5,-18.03 1.75,-34.94 3.75,-50.71l10.53 0 12.21 37.26 -0 0 12.28 -37.26 10.03 0c2.19,18.47 3.49,35.38 3.89,50.71l0.04 0zm0 0z"/>
   <path class="fil0" d="M89.45 98.66c-3.44,18.72 -7.99,32.35 -13.64,40.88 -4.39,6.56 -9.21,9.83 -14.46,9.82 -1.78,-0.08 -3.54,-0.51 -5.16,-1.25l0 -4.52c1.08,0.14 2.19,0.21 3.28,0.21 0.1,0 0.2,-0 0.29,-0 0.13,0.01 0.26,0.01 0.39,0.01 2.02,0 3.98,-0.73 5.51,-2.04 1.67,-1.37 2.65,-3.4 2.69,-5.55 -0.34,-2.95 -1.05,-5.86 -2.09,-8.64l-9.28 -28.92 8.3 0 6.68 21.64c1.5,4.91 2.12,8.34 1.87,10.28 3.76,-10.31 6.34,-21.03 7.64,-31.91l7.97 -0zm0 0z"/>
   <path class="fil0" d="M126.53 122.01c0,0.11 0,0.24 0,0.35 0,3.94 -1.73,7.69 -4.72,10.25 -3.31,2.68 -7.45,4.15 -11.71,4.15 -0.32,0 -0.63,-0.01 -0.95,-0.02 -5.15,-0.05 -10.18,-1.67 -14.39,-4.64l2.18 -4.36c3.34,1.82 7.05,2.86 10.85,3 0.21,0.01 0.43,0.02 0.64,0.02 2.32,0 4.59,-0.71 6.5,-2.03 1.73,-1.32 2.75,-3.37 2.75,-5.54 0,-0.03 0,-0.07 0,-0.1 0,-3 -2.09,-5.57 -5.94,-7.73 -3.57,-1.96 -10.71,-6.03 -10.71,-6.03 -3.6,-2.2 -5.79,-6.12 -5.79,-10.34 0,-0.12 0,-0.25 0.01,-0.37 -0,-0.14 -0.01,-0.29 -0.01,-0.43 0,-3.65 1.58,-7.13 4.33,-9.53 2.91,-2.46 6.62,-3.82 10.43,-3.82 0.23,0 0.46,0.01 0.68,0.01 0.06,0 0.13,0 0.19,0 4.48,0 8.86,1.31 12.61,3.77l-1.84 4.22c-3.06,-1.36 -6.38,-2.08 -9.73,-2.11 -0.23,-0.02 -0.46,-0.03 -0.69,-0.03 -1.92,0 -3.79,0.64 -5.31,1.81 -1.43,1.2 -2.26,2.96 -2.27,4.82 0,3 2.14,5.6 6.09,7.8 3.57,1.95 10.85,6.11 10.85,6.11 3.96,2.8 5.93,5.8 5.93,10.71l0 0.07zm0 0z"/>
   <path class="fil1" d="M141.65 125.92c-2.03,-3.3 -3.07,-8.6 -3.07,-15.91 0,-12.78 3.87,-19.17 11.62,-19.16 0.22,-0.02 0.44,-0.02 0.66,-0.02 3.36,0 6.49,1.74 8.26,4.59 2.06,3.3 3.08,8.56 3.07,15.78 0,12.88 -3.87,19.31 -11.6,19.3 -0.21,0.01 -0.43,0.02 -0.64,0.02 -3.37,0 -6.5,-1.74 -8.28,-4.59l-0.02 -0.02zm30.12 11.37l-9.32 -4.59c0.84,-0.68 1.62,-1.45 2.32,-2.27 3.95,-4.65 5.93,-11.54 5.93,-20.65 0,-16.78 -6.55,-25.17 -19.64,-25.17 -0.33,-0.02 -0.67,-0.03 -1,-0.03 -5.42,0 -10.56,2.36 -14.1,6.45 -3.94,4.67 -5.91,11.53 -5.91,20.58 0,9.06 1.75,15.6 5.25,19.64 3.18,3.75 8,5.64 14.44,5.64 0.07,-0 0.14,-0 0.21,-0 2.17,0 4.33,-0.3 6.42,-0.89l12.1 7.05 3.3 -5.69 0 -0.07zm0 0z"/>
   <polygon class="fil0" points="202.11,136.08 178.07,136.08 178.07,85.36 186.15,85.36 186.15,129.83 202.11,129.83 202.11,136.08 "/>
   <path class="fil0" d="M207.88 136.06l1.34 0 0 -5.16 1.79 0 0 -1.05 -4.93 -0 0 1.05 1.79 0 0 5.16 0.02 0zm10.21 0l1.27 0 0 -6.21 -1.91 0 -1.55 4.25 -1.68 -4.25 -1.79 0 0 6.21 1.2 0 0 -4.71 0 0 1.79 4.71 0.91 0 1.79 -4.71 0 4.71 -0.02 0zm0 0z"/>
   <path class="fil1" d="M212.27 68.39c-0.6,-0.04 -1.21,-0.06 -1.81,-0.06 -3.43,0 -6.84,0.63 -10.05,1.84 -0.91,0.38 -2.37,0.38 -2.5,1.54 0.48,0.48 0.54,1.29 0.98,1.96 0.83,1.42 1.9,2.68 3.16,3.73 1.29,0.98 2.57,1.96 3.93,2.82 2.37,1.46 5.07,2.32 7.37,3.8 1.36,0.86 2.7,1.95 4.05,2.87 0.66,0.48 1.09,1.28 1.95,1.59l0 -0.18c-0.43,-0.55 -0.55,-1.36 -0.98,-1.96l-1.79 -1.79c-1.79,-2.37 -3.94,-4.46 -6.35,-6.19 -1.96,-1.36 -6.25,-3.2 -7.03,-5.36l-0.12 -0.12c1.43,-0.21 2.84,-0.54 4.21,-1 2.09,-0.54 3.98,-0.41 6.11,-0.96 0.98,-0.25 1.96,-0.55 2.95,-0.86l0 -0.55c-1.11,-1.11 -1.89,-2.57 -3.05,-3.57 -3.16,-2.76 -6.55,-5.28 -10.09,-7.53 -1.89,-1.21 -4.34,-2.02 -6.36,-3.05 -0.73,-0.38 -1.95,-0.55 -2.37,-1.18 -1,-1.48 -1.85,-3.06 -2.51,-4.72 -1.79,-3.36 -3.57,-7.14 -5,-10.71 -0.88,-2.42 -1.93,-4.82 -3.09,-7.13 -5.67,-9.64 -13.9,-17.58 -23.73,-22.92 -2.46,-1.2 -5.11,-2.05 -7.82,-2.5 -1.52,0 -3.05,-0.2 -4.57,-0.25 -0.99,-0.64 -1.94,-1.36 -2.82,-2.14 -3.57,-2.21 -12.5,-6.98 -15.03,-0.68 -1.64,4 2.44,7.91 3.86,9.93 1.17,1.43 2.22,2.96 3.11,4.59 0.43,1.05 0.55,2.16 0.98,3.25 0.9,2.79 1.96,5.55 3.18,8.22 0.66,1.32 1.42,2.59 2.27,3.8 0.48,0.68 1.34,0.98 1.52,2.09 -0.67,1.46 -1.14,3 -1.39,4.59 -2.21,6.93 -1.36,15.49 1.79,20.58 0.96,1.54 3.3,4.91 6.41,3.57 2.75,-1.09 2.14,-4.59 2.95,-7.64 0.18,-0.75 0,-1.23 0.41,-1.79l0 0.11c0.86,1.79 1.79,3.37 2.52,5.09 2.16,3.19 4.84,6 7.92,8.32 1.46,1.11 2.62,3 4.46,3.68l0 -0.11 -0.13 0c-0.41,-0.47 -0.89,-0.89 -1.41,-1.23 -1.15,-1.13 -2.22,-2.37 -3.18,-3.68 -2.58,-3.51 -4.89,-7.27 -6.84,-11.16 -0.98,-1.91 -1.78,-4 -2.62,-5.89 -0.38,-0.73 -0.38,-1.79 -0.98,-2.2 -1.15,1.25 -2.15,2.63 -2.98,4.11 -1.02,2.98 -1.62,6.1 -1.79,9.25 -0.25,0 -0.12,0 -0.25,0.12 -1.95,-0.5 -2.62,-2.52 -3.36,-4.23 -1.05,-2.89 -1.59,-5.95 -1.59,-9.03 0,-2.48 0.35,-4.95 1.03,-7.32 0.43,-1.29 2.27,-5.36 1.52,-6.55 -0.36,-1.18 -1.59,-1.79 -2.25,-2.77 -0.86,-1.22 -1.6,-2.54 -2.2,-3.91 -1.46,-3.45 -2.21,-7.23 -3.78,-10.71 -0.89,-1.65 -1.92,-3.23 -3.07,-4.71 -1.27,-1.47 -2.4,-3.08 -3.36,-4.76 -0.3,-0.68 -0.73,-1.79 -0.25,-2.52 0.08,-0.43 0.42,-0.76 0.85,-0.81 0.8,-0.68 3.05,0.18 3.86,0.55 2.17,0.82 4.25,1.89 6.18,3.18 0.86,0.61 1.78,1.79 2.86,2.07l1.29 -0c1.96,0.43 4.16,0.12 6,0.68 3.1,1.03 6.06,2.46 8.8,4.23 8.09,5.17 14.67,12.41 19.05,20.95 0.75,1.39 1.05,2.7 1.79,4.16 1.29,3 2.87,6.07 4.16,8.93 1.13,2.89 2.59,5.66 4.34,8.21 0.93,1.29 4.59,1.96 6.23,2.64 1.43,0.51 2.86,1.11 4.23,1.78 2.07,1.29 4.14,2.75 6.11,4.16 0.96,0.75 4.03,2.27 4.21,3.57l-0.07 -0.14zm0 0z"/>
   <path class="fil1" d="M149.95 15.14c-0.03,0 -0.06,0 -0.09,0 -0.82,0 -1.63,0.11 -2.42,0.32l0 0.12 0.12 0c0.59,0.87 1.25,1.71 1.96,2.5 0.48,0.98 0.91,1.96 1.39,2.95l0.12 -0.12c0.82,-0.65 1.3,-1.65 1.3,-2.7 0,-0.12 -0.01,-0.24 -0.02,-0.35 -0.36,-0.43 -0.43,-0.86 -0.73,-1.29 -0.3,-0.43 -1.16,-0.91 -1.64,-1.41l0 -0.02zm0 0z"/>
  </g>
 </g>
</svg>
