<?xml version="1.0" encoding="UTF-8"?>
<!DOCTYPE svg PUBLIC "-//W3C//DTD SVG 1.1//EN" "http://www.w3.org/Graphics/SVG/1.1/DTD/svg11.dtd">
<!-- Creator: CorelDRAW -->
<svg xmlns="http://www.w3.org/2000/svg" xml:space="preserve" width="52.5719mm" height="15.3968mm" version="1.1" style="shape-rendering:geometricPrecision; text-rendering:geometricPrecision; image-rendering:optimizeQuality; fill-rule:evenodd; clip-rule:evenodd"
viewBox="0 0 529.84 155.18"
 xmlns:xlink="http://www.w3.org/1999/xlink"
 xmlns:xodm="http://www.corel.com/coreldraw/odm/2003">
 <defs>
  <style type="text/css">
   <![CDATA[
    .fil1 {fill:#FEFEFE}
    .fil0 {fill:#FEFEFE;fill-rule:nonzero}
   ]]>
  </style>
 </defs>
 <g id="Capa_x0020_1">
  <metadata id="CorelCorpID_0Corel-Layer"/>
  <g id="_1693782612480">
   <g>
    <path class="fil0" d="M155.75 65.96c3.34,-0.56 7.71,-1.03 13.28,-1.03 6.83,0 11.85,1.59 15.03,4.45 2.94,2.54 4.69,6.44 4.69,11.21 0,4.85 -1.43,8.67 -4.14,11.45 -3.66,3.9 -9.62,5.88 -16.38,5.88 -2.07,0 -3.98,-0.08 -5.56,-0.48l0 21.47 -6.92 0 0 -52.96zm6.92 25.84c1.51,0.4 3.42,0.56 5.73,0.56 8.34,0 13.44,-4.05 13.44,-11.45 0,-7.08 -5.01,-10.5 -12.64,-10.5 -3.02,0 -5.33,0.24 -6.52,0.56l0 20.83zm67.98 7.55c0,14.23 -9.86,20.44 -19.16,20.44 -10.42,0 -18.45,-7.63 -18.45,-19.8 0,-12.88 8.43,-20.43 19.08,-20.43 11.05,-0 18.53,8.03 18.53,19.8l0 0zm-30.53 0.4c0,8.43 4.85,14.79 11.69,14.79 6.68,0 11.68,-6.28 11.68,-14.95 0,-6.52 -3.26,-14.79 -11.53,-14.79 -8.27,0 -11.84,7.63 -11.84,14.95l0 0zm38.4 12.01c2.07,1.35 5.72,2.78 9.22,2.78 5.09,0 7.47,-2.54 7.47,-5.72 0,-3.34 -1.99,-5.17 -7.16,-7.08 -6.92,-2.47 -10.18,-6.28 -10.18,-10.89 0,-6.2 5.01,-11.29 13.28,-11.29 3.9,0 7.32,1.11 9.47,2.39l-1.75 5.09c-1.51,-0.95 -4.29,-2.23 -7.87,-2.23 -4.13,0 -6.44,2.39 -6.44,5.25 0,3.18 2.31,4.61 7.32,6.52 6.68,2.54 10.1,5.88 10.1,11.61 0,6.76 -5.25,11.53 -14.39,11.53 -4.21,0 -8.11,-1.03 -10.81,-2.62l1.74 -5.33zm40.87 -42.38l0 11.05 10.01 0 0 5.33 -10.01 0 0 20.75c0,4.77 1.35,7.47 5.25,7.47 1.83,0 3.18,-0.24 4.06,-0.48l0.32 5.25c-1.35,0.56 -3.5,0.95 -6.2,0.95 -3.26,0 -5.89,-1.03 -7.56,-2.94 -1.98,-2.07 -2.7,-5.49 -2.7,-10.02l0 -20.99 -5.96 0 0 -5.33 5.96 0 0 -9.22 6.84 -1.83zm50.57 11.06c-0.16,2.78 -0.32,5.88 -0.32,10.57l0 22.34c0,8.83 -1.75,14.23 -5.49,17.57 -3.74,3.5 -9.14,4.61 -13.99,4.61 -4.61,0 -9.7,-1.11 -12.8,-3.18l1.75 -5.33c2.54,1.59 6.52,3.02 11.29,3.02 7.16,0 12.4,-3.74 12.4,-13.44l0 -4.29 -0.16 0c-2.15,3.58 -6.28,6.44 -12.24,6.44 -9.54,0 -16.38,-8.11 -16.38,-18.77 0,-13.04 8.51,-20.43 17.33,-20.43 6.68,0 10.34,3.5 12.01,6.68l0.16 0 0.32 -5.8 6.12 0zm-7.24 15.19c0,-1.19 -0.08,-2.23 -0.4,-3.18 -1.27,-4.05 -4.69,-7.39 -9.78,-7.39 -6.68,0 -11.45,5.64 -11.45,14.55 0,7.55 3.82,13.84 11.37,13.84 4.29,0 8.19,-2.7 9.7,-7.16 0.4,-1.19 0.56,-2.54 0.56,-3.74l0 -6.92 -0 0zm18.04 -3.18c0,-4.53 -0.08,-8.43 -0.32,-12.01l6.12 0 0.24 7.55 0.32 0c1.75,-5.17 5.96,-8.43 10.65,-8.43 0.8,0 1.35,0.08 1.98,0.24l0 6.6c-0.71,-0.16 -1.43,-0.24 -2.38,-0.24 -4.93,0 -8.43,3.74 -9.38,8.98 -0.16,0.95 -0.32,2.07 -0.32,3.26l0 20.51 -6.92 0 0 -26.48zm29.1 8.51c0.16,9.46 6.2,13.36 13.2,13.36 5.01,0 8.03,-0.87 10.65,-1.99l1.19 5.01c-2.47,1.11 -6.68,2.39 -12.8,2.39 -11.85,0 -18.92,-7.79 -18.92,-19.4 0,-11.61 6.84,-20.76 18.05,-20.76 12.56,0 15.9,11.05 15.9,18.13 0,1.43 -0.16,2.54 -0.24,3.26l-27.03 0 0 0zm20.51 -5.01c0.07,-4.45 -1.83,-11.37 -9.7,-11.37 -7.08,0 -10.18,6.52 -10.74,11.37l20.44 0z"/>
   </g>
   <g>
    <path class="fil0" d="M405.09 110.49c3.1,1.91 7.63,3.5 12.4,3.5 7.08,0 11.21,-3.74 11.21,-9.14 0,-5.01 -2.86,-7.87 -10.1,-10.65 -8.75,-3.1 -14.15,-7.63 -14.15,-15.19 0,-8.35 6.92,-14.55 17.33,-14.55 5.49,0 9.46,1.27 11.85,2.62l-1.91 5.64c-1.75,-0.95 -5.33,-2.54 -10.18,-2.54 -7.31,0 -10.1,4.37 -10.1,8.03 0,5.01 3.26,7.47 10.65,10.34 9.06,3.5 13.68,7.87 13.68,15.74 0,8.27 -6.13,15.43 -18.77,15.43 -5.17,0 -10.81,-1.51 -13.68,-3.42l1.75 -5.8zm84.36 16.3c-7.25,-1.91 -14.31,-4.05 -20.53,-6.2 -1.1,-0.4 -2.21,-0.8 -3.25,-0.8 -12.72,-0.48 -23.61,-9.86 -23.61,-27.11 0,-17.17 10.49,-28.22 24.97,-28.22 14.55,0 24,11.29 24,27.11 0,13.76 -6.35,22.58 -15.26,25.68l0 0.32c5.32,1.35 11.13,2.62 15.66,3.42l-1.98 5.8zm-5.73 -34.9c0,-10.73 -5.56,-21.79 -16.93,-21.79 -11.69,0 -17.42,10.81 -17.33,22.42 -0.08,11.37 6.2,21.63 17.02,21.63 11.06,0 17.25,-10.02 17.25,-22.26l0 0zm16.3 -26.56l6.91 0 0 47.78 22.9 0 0 5.8 -29.82 0 0 -53.59z"/>
   </g>
   <g>
    <path class="fil1" d="M58.2 110.48c-2.07,0 -3.83,-0.12 -5.83,-0.59 -1.08,-0.25 -2.09,-0.51 -3.04,-1.02 -0.31,-0.17 -0.35,-0.16 -0.67,-0.36 -0.1,-0.07 -0.14,-0.06 -0.2,-0.15 0.11,-0.02 0.22,-0.08 0.33,-0.13 1.64,-0.66 4.12,-1.05 5.89,-1.49 0.8,-0.2 1.51,-0.38 2.29,-0.64 1.38,-0.46 2.82,-1 4,-1.89 0.11,-0.08 0.17,-0.14 0.28,-0.22l0.79 -0.69c1.28,-1.29 2.04,-2.49 3.12,-3.73l1.37 -1.59c0.35,-0.44 1.23,-1.17 1.8,-1.17 0.68,0 1.26,0.25 1.8,0.53 0.27,0.14 0.28,0.18 0.45,0.32 1.37,1.1 2.27,3.36 1.6,5.05 -0.18,0.45 -1.16,1.62 -1.53,2.07l-1.08 1.11c-0.29,0.29 -1.18,1.06 -1.56,1.33 -0.99,0.71 -2.05,1.38 -3.19,1.86 -0.19,0.08 -0.33,0.14 -0.52,0.22 -1.79,0.72 -4.17,1.18 -6.1,1.18zm50.67 -110.48l2.4 0c0.52,0.01 1.03,0.03 1.53,0.07 0.34,0.03 0.68,0.01 1.02,0.04l2.83 0.28c2.37,0.26 4.74,0.72 7.01,1.36l1.61 0.47c1.8,0.57 4.31,1.48 6,2.37l1.4 0.71c0.91,0.45 1.78,0.99 2.63,1.53 1.14,0.73 3.87,2.64 4.8,3.56 0.1,0.1 0.18,0.15 0.28,0.25 0.11,0.1 0.17,0.14 0.28,0.25l1.08 1c0.56,0.44 1.07,1.06 1.57,1.57 0.1,0.1 0.14,0.18 0.25,0.28l0.39 0.42c0.35,0.42 0.75,0.81 1.08,1.25 0.38,0.49 0.8,0.95 1.15,1.46 0.49,0.71 0.76,1.26 1.12,2.02l0.3 0.73c0.38,0.94 0.69,2.27 0.86,3.3 0.15,0.88 0.27,1.87 0.35,2.8 0.03,0.34 0.01,0.64 0.04,0.98 0.03,0.32 0.03,0.65 0.03,1.03 -0,0.23 0.04,0.29 0.04,0.49 0.01,0.6 -0.05,3.19 -0.13,3.79l-0.04 0.63c-0.11,2.27 -0.67,6.12 -1.12,8.35 -0.16,0.77 -0.29,1.5 -0.45,2.27 -0.27,1.35 -0.94,4.28 -1.29,5.49 -0.1,0.35 -0.2,0.71 -0.29,1.06 -0.2,0.81 -0.95,3.45 -1.21,4.22l-0.99 3.07c-0.77,2.34 -1.59,4.65 -2.49,6.93 -0.26,0.65 -0.49,1.31 -0.77,1.95 -0.14,0.33 -0.27,0.65 -0.4,0.97l-2.14 4.96c-0.47,1 -0.9,2.02 -1.4,3.01l-3.65 7.19c-0.08,0.16 -0.15,0.26 -0.23,0.44l-0.49 0.88c-0.09,0.16 -0.16,0.29 -0.24,0.44l-0.24 0.43c-0.09,0.15 -0.16,0.27 -0.24,0.43l-1.74 2.99c-0.65,1.13 -1.38,2.22 -2.07,3.34 -0.1,0.16 -0.17,0.27 -0.26,0.41l-0.53 0.81c-0.07,0.11 -0.22,0.31 -0.25,0.42 0.2,0.05 0.41,0.24 0.61,0.34l0.26 0.13c0.6,0.27 1.19,0.43 1.87,0.56 2.13,0.43 3.56,0.33 5.6,0.3 0.19,-0 0.21,-0.03 0.39,-0.04l1.55 -0.11c0.48,-0.06 0.98,-0.12 1.49,-0.17 1.42,-0.15 2.88,-0.44 4.29,-0.73 0.99,-0.2 1.88,-0.4 2.92,-0.4 0.86,0 1.93,0.06 2.63,0.47 0.51,0.3 0.55,0.33 0.99,0.77 0.39,0.39 0.82,1.24 0.82,1.83l0 0.03 0 0.03c-0,0.58 -0.02,0.97 -0.21,1.54l-0.35 0.82 -0.47 0.74c-1.14,1.54 -1.63,1.84 -2.91,2.95 -0.22,0.19 -0.44,0.35 -0.67,0.53 -0.13,0.09 -0.23,0.16 -0.35,0.25 -0.45,0.33 -0.92,0.67 -1.4,0.96 -0.85,0.51 -1.7,1.06 -2.59,1.5 -0.15,0.07 -0.26,0.12 -0.4,0.2 -0.38,0.2 -0.79,0.42 -1.18,0.58 -0.29,0.12 -0.52,0.23 -0.82,0.35 -2.76,1.11 -6.6,1.94 -9.6,2.2 -0.57,0.05 -1.63,0.18 -2.19,0.18 -0.4,0 -0.71,0.04 -1.13,0.03 -0.39,-0 -0.71,0.04 -1.13,0.04 -0.34,0 -0.58,-0.04 -0.88,-0.04 -0.82,0 -1.71,-0.07 -2.48,-0.17 -0.6,-0.07 -2.37,-0.34 -2.92,-0.61 -0.01,0.33 -0.07,0.72 -0.12,1.05 -0.31,2.44 -0.52,4.87 -0.85,7.3l-1.32 10.34c-0.1,0.7 -0.17,1.35 -0.28,2.05l-0.58 4.08c-0.09,0.66 -0.21,1.36 -0.32,2.01 -0.62,3.68 -1.39,7.38 -3.33,10.61 -0.73,1.21 -1.17,1.74 -2.11,2.86 -0.27,0.33 -1.02,1.04 -1.33,1.28 -0.32,0.24 -0.63,0.54 -0.96,0.77 -1.26,0.85 -1.79,1.22 -3.27,1.96l-0.8 0.36c-2.55,1.19 -6.85,2.26 -9.66,2.56 -1.99,0.21 -4.6,0.22 -6.54,-0.29 -1.09,-0.28 -1.29,-0.36 -2.26,-0.71 -1.14,-0.41 -2.2,-1.07 -3.18,-1.76 -0.2,-0.14 -0.37,-0.27 -0.56,-0.43 -0.46,-0.36 -0.89,-0.76 -1.3,-1.17 -0.11,-0.11 -0.14,-0.15 -0.23,-0.26l-1.76 -2.19c-0.07,-0.1 -0.12,-0.19 -0.19,-0.3 -0.34,-0.5 -0.61,-1.04 -0.92,-1.55 -0.25,-0.43 -0.44,-0.86 -0.66,-1.31l-0.6 -1.37c-0.1,-0.25 -0.19,-0.45 -0.29,-0.7 -0.52,-1.29 -0.94,-3.34 -1.11,-4.83 -0.07,-0.59 -0.15,-1.14 -0.22,-1.76 -0.06,-0.57 -0.1,-1.2 -0.19,-1.79 -0.04,-0.3 -0.05,-0.64 -0.08,-0.91 -0.04,-0.3 -0.05,-0.64 -0.08,-0.91 -0.03,-0.31 -0.05,-0.63 -0.07,-0.91 -0.03,-0.31 -0.01,-0.64 -0.05,-0.94l-0.17 -2.8c0,-0.46 -0.07,-1.09 -0.07,-1.41 0,-0.16 0.01,-0.34 0,-0.5 -0.04,-0.81 -0.11,-2.05 -0.11,-2.86l-0.07 -1.91c-0.02,-0.31 0,-0.67 0,-0.99 0,-0.37 -0.04,-0.61 -0.04,-0.95 0,-0.33 0,-0.66 0,-0.99 0,-0.16 0,-0.33 0,-0.49 0,-0.21 -0.04,-0.26 -0.04,-0.46 -0.03,-2.63 0,-5.28 0,-7.91 -0.08,0.05 -0.1,0.09 -0.17,0.15 -0.08,0.06 -0.1,0.07 -0.17,0.15 -0.41,0.41 -1.63,1.34 -2.14,1.64 -0.13,0.08 -0.24,0.15 -0.37,0.23 -5.23,3.35 -11.39,3.89 -17.63,2.64 -0.46,-0.09 -0.87,-0.19 -1.33,-0.3 -0.43,-0.11 -0.88,-0.23 -1.25,-0.37 -0.2,-0.08 -0.41,-0.14 -0.6,-0.21 -0.58,-0.21 -1.14,-0.49 -1.68,-0.76 -0.54,-0.27 -1.04,-0.59 -1.51,-0.96 -0.46,-0.36 -0.87,-0.73 -1.23,-1.21 -0.38,-0.51 -0.62,-1.03 -0.79,-1.65 -0.13,-0.5 -0.08,-0.96 -0.02,-1.46 0.02,-0.19 0.12,-0.44 0.19,-0.62 0.1,-0.31 0.25,-0.55 0.43,-0.81 0.06,-0.08 0.11,-0.12 0.18,-0.21 0.14,-0.18 0.23,-0.28 0.38,-0.43 1.28,-1.26 3.31,-1.88 5.03,-2.31 1.52,-0.38 3.11,-0.65 4.63,-1.06 0.2,-0.05 0.42,-0.12 0.64,-0.18 0.39,-0.1 0.81,-0.24 1.24,-0.38 0.2,-0.07 0.38,-0.14 0.59,-0.22 1.07,-0.4 1.62,-0.83 2.43,-1.64l0.39 -0.42c0.38,-0.43 0.73,-0.91 1.08,-1.35l1.45 -1.8c0,-0.13 -0.02,-0.07 -0.04,-0.21l-3.26 -0.37c-1.03,-0.19 -1.82,-0.46 -2.81,-0.76 -0.33,-0.1 -0.69,-0.27 -1.02,-0.39 -0.42,-0.15 -0.84,-0.37 -1.25,-0.55 -0.1,-0.04 -0.13,-0.08 -0.22,-0.13 -0.16,-0.09 -0.32,-0.15 -0.47,-0.24 -0.22,0.15 -0.71,0.77 -0.94,1 -0.32,0.31 -0.6,0.67 -0.92,0.99 -0.13,0.12 -0.18,0.22 -0.3,0.34l-1.68 1.82c-0.07,0.08 -0.07,0.1 -0.14,0.18 -0.06,0.06 -0.1,0.09 -0.16,0.16 -0.07,0.08 -0.07,0.1 -0.14,0.18l-1.08 1.18c-0.07,0.08 -0.07,0.1 -0.14,0.18 -0.06,0.06 -0.1,0.1 -0.16,0.16 -0.07,0.08 -0.07,0.1 -0.14,0.18l-0.9 1c-0.62,0.67 -1.46,1.66 -2.07,2.38l-1.49 1.73c-0.06,0.08 -0.09,0.1 -0.15,0.17l-2.61 3.11c-0.06,0.06 -0.1,0.09 -0.16,0.16 -0.28,0.35 -0.6,0.67 -0.92,0.99l-1.03 0.92c-0.12,0.1 -0.23,0.18 -0.35,0.28 -0.12,0.1 -0.23,0.18 -0.36,0.27 -1.06,0.73 -2.11,1.35 -3.37,1.71 -1.08,0.31 -1.81,0.36 -2.96,0.36 -1.38,0 -2.77,-0.5 -3.89,-1.06 -0.7,-0.35 -1.38,-0.8 -2.01,-1.27 -0.54,-0.41 -0.88,-0.75 -1.35,-1.12 -0.29,-0.23 -1.18,-1.15 -1.41,-1.45 -0.3,-0.39 -0.63,-0.72 -0.94,-1.11 -1.59,-2.03 -2.97,-4.19 -4.19,-6.47l-2.07 -4.11c-0.81,-1.81 -1.61,-3.61 -2.35,-5.46 -1.03,-2.58 -1.97,-5.17 -2.85,-7.81 -0.48,-1.44 -0.96,-2.9 -1.39,-4.36 -0.06,-0.21 -0.13,-0.42 -0.19,-0.62 -0.07,-0.2 -0.12,-0.41 -0.19,-0.62 -0.34,-1.05 -0.62,-2.12 -0.93,-3.17 -0.75,-2.56 -1.43,-5.15 -2.1,-7.76 -0.22,-0.87 -0.42,-1.75 -0.64,-2.64l-1.23 -5.34c-0.36,-1.69 -0.85,-3.77 -1.13,-5.44 -0.08,-0.44 -0.19,-0.94 -0.27,-1.39l-0.25 -1.37c-0.37,-1.87 -0.66,-3.75 -0.92,-5.65 -0.45,-3.22 -0.49,-4.93 -0.49,-7.69l0 -1.11 0 -0.17 0 -0.17c0,-1.27 0.11,-2.44 0.18,-3.64 0.03,-0.57 0.13,-1.18 0.17,-1.73 0.1,-1.12 0.31,-2.21 0.5,-3.32 0.4,-2.44 1.22,-5.08 2.13,-7.37 0.45,-1.12 0.96,-2.17 1.53,-3.2 0.78,-1.4 1.69,-2.7 2.68,-3.96l1.58 -1.77 2.77 -2.42c0.53,-0.43 1.13,-0.79 1.69,-1.17 0.2,-0.14 0.37,-0.23 0.59,-0.36l1.83 -1c0.43,-0.21 0.87,-0.42 1.3,-0.61l1.36 -0.55c0.91,-0.35 1.9,-0.69 2.85,-0.93 0.88,-0.22 1.81,-0.48 2.72,-0.64 2.42,-0.42 4.79,-0.75 7.31,-0.75 0.56,0 1.32,-0.1 1.86,-0.03 0.26,0.04 0.61,0.03 0.93,0.03 1.45,0 4.71,0.27 6.16,0.47 0.57,0.08 1.12,0.14 1.65,0.22 3.54,0.51 7.47,1.37 10.93,2.38l5.15 1.64c0.02,0.01 0.05,0.02 0.07,0.03 0.07,0.03 0.11,0.04 0.18,0.06 0.58,0.19 0.54,0.36 0.99,0.06 0.76,-0.51 1.56,-0.97 2.36,-1.42l0.62 -0.33c0.43,-0.21 0.85,-0.44 1.29,-0.62 0.9,-0.37 1.78,-0.76 2.71,-1.07 1,-0.33 1.94,-0.62 2.97,-0.84 1.6,-0.34 3.24,-0.68 4.88,-0.8 1.23,-0.09 2.51,-0.18 3.81,-0.18 0.3,0 3.06,0.06 3.45,0.11 0.19,0.03 0.61,0.06 0.82,0.06 0.28,0.01 0.52,0.06 0.81,0.07 0.52,0.03 1.05,0.1 1.58,0.18 1.51,0.22 3.07,0.42 4.54,0.79l1.43 0.33c-0.02,-0.08 -0.03,-0.1 -0.04,-0.21l2.12 -0.67c0.72,-0.21 1.43,-0.39 2.18,-0.58 1.09,-0.27 2.3,-0.55 3.43,-0.73 0.38,-0.06 0.81,-0.13 1.18,-0.2 1.2,-0.23 2.43,-0.36 3.66,-0.51l3.86 -0.31c0.27,0 0.39,-0.04 0.67,-0.04l1.34 -0.04 0.06 0zm34.83 97.45c-0.3,0.45 -2.43,1.92 -2.9,2.22 -1.34,0.84 -3.27,1.94 -4.74,2.43 -2.23,0.75 -4.26,1.25 -6.65,1.54 -0.64,0.08 -2.13,0.27 -2.8,0.28l-0.97 0.06c-0.6,0.09 -3.13,0.01 -3.96,-0.11 -1.38,-0.2 -2.12,-0.25 -3.27,-0.86 0,-0.39 -0.07,-0.76 -0.03,-1.04 0.03,-0.19 0.03,-0.33 0.03,-0.55 -0.01,-1.09 0.41,-3.02 1.29,-3.76 1.05,-0.88 1.81,-0.94 3.13,-1.36 0.12,-0.04 0.33,-0.12 0.43,-0.08l1.01 0.68c1.42,0.86 3.47,1.41 5.13,1.61 0.2,0.02 0.32,0.03 0.51,0.06 0.12,0.02 0.37,0.05 0.5,0.06l1.06 0.07c2.34,0.03 3.2,-0.01 5.37,-0.18 0.7,-0.05 2.35,-0.27 3,-0.39l2.89 -0.5c0.24,-0.05 0.7,-0.17 0.96,-0.17zm0 0zm-73.35 -33.82l73.35 33.82zm-73.35 -33.82l0 1.27c0,0.22 -0.03,0.32 -0.04,0.49 -0.01,0.17 0.01,0.36 0,0.53 -0.02,0.81 -0.13,1.69 -0.21,2.51 -0.18,1.91 -0.57,3.64 -1.07,5.43 -0.38,1.36 -0.9,2.69 -1.44,4l-1.32 3.02c-0.36,0.74 -0.67,1.52 -0.97,2.28 -0.42,1.05 -0.78,2.1 -1.19,3.16 -0.11,0.28 -0.18,0.53 -0.29,0.8 -0.11,0.27 -0.17,0.54 -0.28,0.81 -0.27,0.67 -0.61,1.78 -0.79,2.47 -0.06,0.22 -0.21,0.65 -0.21,0.88 -1.56,0 -2.98,-0.18 -4.38,-0.63 -0.42,-0.14 -0.78,-0.24 -1.19,-0.4 -0.2,-0.08 -0.36,-0.14 -0.55,-0.22 -0.19,-0.09 -0.34,-0.16 -0.54,-0.24 -0.87,-0.36 -1.67,-0.91 -2.45,-1.43 -0.08,-0.05 -0.15,-0.09 -0.23,-0.16 -0.3,-0.22 -0.62,-0.45 -0.89,-0.7 -0.33,-0.32 -0.7,-0.59 -1.02,-0.92l-0.58 -0.58c-0.43,-0.49 -0.86,-0.98 -1.25,-1.5 -0.45,-0.6 -0.86,-1.22 -1.25,-1.86l-0.55 -1c-0.29,-0.54 -0.5,-1.06 -0.73,-1.64 -0.15,-0.39 -0.28,-0.75 -0.41,-1.14 -0.13,-0.39 -0.24,-0.81 -0.35,-1.2 -0.37,-1.34 -0.53,-2.69 -0.57,-4.13 -0.01,-0.18 -0.05,-0.19 -0.03,-0.35l0.03 -1.14c-0,-0.52 0.07,-1 0.11,-1.48 0.04,-0.46 0.11,-0.94 0.17,-1.38 0.06,-0.47 0.12,-0.94 0.17,-1.38 0.06,-0.48 0.08,-0.97 0.14,-1.41l0.12 -1.47c0.01,-0.38 0.1,-1.05 0.11,-1.45 0.03,-1.04 0.11,-1.99 0.1,-3.04 -0,-0.26 0.04,-0.44 0.04,-0.74l0 -2.54c0,-0.63 -0.04,-1.18 -0.04,-1.77l-0.03 -1.34c0,-0.2 -0.03,-0.26 -0.04,-0.42l-0.04 -1.31c-0.01,-0.16 -0.04,-0.22 -0.04,-0.42l-0.1 -1.74c-0.02,-0.14 0,-0.28 -0.01,-0.42l-0.06 -0.86c-0.01,-0.14 0.09,-0.18 0.19,-0.25 0.19,-0.14 0.34,-0.26 0.53,-0.39l0.81 -0.53c1.37,-0.9 3.07,-1.69 4.57,-2.28 2.08,-0.83 4.22,-1.44 6.44,-1.75 0.59,-0.08 2.03,-0.21 2.61,-0.13 0.6,0.08 0.95,0.06 1.61,0.18 0.96,0.17 1.83,0.49 2.62,1.02 0.27,0.18 0.54,0.37 0.78,0.6 1.1,1.12 1.72,2.22 2.13,3.77 0.53,2.02 1.11,5.62 1.39,7.72 0.28,2.11 0.48,4.44 0.48,6.83zm50.22 -6c0,1.09 0.04,1.86 0.07,2.9 0.01,0.17 0.03,0.25 0.04,0.46l0.74 6.75c0.1,0.79 0.34,3.36 0.36,4.12 0.01,0.16 -0.01,0.34 -0,0.5 0.1,1.91 -0,3.52 -0.27,5.41l-0.22 1.19c-0.21,0.84 -0.33,1.37 -0.6,2.18 -0.12,0.35 -0.25,0.69 -0.38,1.03l-0.42 0.99c-0.12,-0.09 -0.43,-0.75 -0.49,-0.88 -0.16,-0.32 -0.31,-0.62 -0.46,-0.95l-0.65 -1.44 -6.11 -11.41c-0.14,-0.34 -0.29,-0.62 -0.45,-0.93 -0.08,-0.16 -0.14,-0.31 -0.22,-0.48 -1.18,-2.36 -2.67,-6.15 -3.41,-8.49l-0.62 -2.21c-0.58,-2.56 -1.15,-5.83 -0.34,-8.42 0.38,-1.23 0.8,-1.93 1.62,-2.76 0.83,-0.84 2.19,-1.49 3.32,-1.8 0.18,-0.05 0.38,-0.12 0.58,-0.16 1,-0.21 1.49,-0.31 2.53,-0.4 0.18,-0.02 0.51,-0.04 0.68,-0.06 1.06,-0.15 5.65,0.08 6.24,0.31 0,0.18 -0.04,0.22 -0.04,0.42 -0,2.19 -0.71,6.3 -1.03,8.54 -0.08,0.57 -0.34,2.63 -0.35,3.15 -0.02,0.78 -0.1,1.55 -0.1,2.44zm-18.47 -6.6c0,1.22 0.13,2.36 0.28,3.43 0.15,1.08 0.39,2.14 0.63,3.11 0.76,3.06 2.32,7.29 3.73,10.22l3.1 6.26c0.11,0.19 0.2,0.4 0.32,0.59 0.36,0.58 0.64,1.22 0.97,1.82 0.12,0.22 0.22,0.39 0.34,0.61l1.32 2.38c0.12,0.2 0.21,0.4 0.33,0.59l0.99 1.84c0.41,0.81 0.77,1.71 1.18,2.53 0.51,1.02 1.1,1.99 1.73,2.94 0.13,0.2 0.25,0.37 0.39,0.56 0.26,0.38 0.52,0.72 0.79,1.08 0.74,0.99 1.79,2.18 2.45,3.16 -0.4,0.03 -1.15,0.36 -1.53,0.51 -0.83,0.33 -1.56,0.77 -2.23,1.33l-0.53 0.49c-0.27,0.26 -0.48,0.55 -0.7,0.85 -1.06,1.41 -1.53,3.16 -1.75,4.89 -0.17,1.35 -0.03,2.68 -0.1,3.43 -0.03,0.33 -0.08,0.68 -0.1,1.03 -0.09,1.35 -0.3,2.68 -0.43,4.02 -0.03,0.32 -0.07,0.64 -0.11,0.98l-0.59 4.99c-0.31,2.66 -0.69,5.3 -0.99,7.94 -0.08,0.66 -0.16,1.31 -0.26,1.97 -0.56,3.87 -0.97,7.82 -1.74,11.64 -0.24,1.2 -0.52,2.38 -0.93,3.52 -0.55,1.58 -1.27,3.07 -2.27,4.41 -0.87,1.16 -2,2.15 -3.23,2.91 -0.13,0.08 -0.23,0.13 -0.35,0.21 -1.19,0.79 -3.39,1.58 -4.72,1.99 -3.03,0.94 -7.23,1.79 -10.48,0.99l-2.06 -0.7c-0.11,-0.06 -0.18,-0.08 -0.3,-0.13 -0.69,-0.32 -1.32,-0.8 -1.92,-1.26 -0.33,-0.26 -0.99,-0.88 -1.22,-1.18 -0.36,-0.46 -0.71,-0.87 -1.04,-1.36 -0.43,-0.64 -0.82,-1.32 -1.17,-2.01 -0.18,-0.36 -0.34,-0.72 -0.52,-1.11 -0.57,-1.23 -0.9,-2.29 -1.13,-3.64 -0.28,-1.66 -0.49,-3.28 -0.62,-4.96 -0.02,-0.21 -0.06,-0.53 -0.07,-0.74l-0.25 -3.74c-0.08,-0.73 -0.05,-1.55 -0.13,-2.27 -0.06,-0.49 0.01,-1.1 -0.05,-1.57 -0.03,-0.22 -0.02,-0.48 -0.02,-0.75l-0.04 -0.78c0,-0.3 -0.04,-0.48 -0.04,-0.74 0,-0.27 0,-0.54 0,-0.81l-0.05 -1.54c-0.06,-0.46 -0.03,-1.08 -0.03,-1.6 0,-0.3 -0.04,-0.46 -0.04,-0.74l0 -2.4c0,-0.29 -0.04,-0.44 -0.04,-0.74l0 -4.27c0,-0.64 0.04,-1.19 0.04,-1.8 0,-0.61 0,-1.22 0,-1.84 0,-1.81 0.11,-3.66 0.11,-5.47 0,-0.57 0.06,-0.7 -0.02,-1.28 -0.25,-1.79 -0.44,-2.37 -1.19,-3.89 -0.32,-0.65 -0.71,-1.1 -1.13,-1.66 -0.18,-0.24 -0.69,-0.76 -0.92,-0.95 -0.34,-0.29 -0.66,-0.55 -1.04,-0.79 -1.34,-0.84 -3.37,-1.53 -5,-1.28 -0.24,0.04 -0.49,0.12 -0.73,0.12 0.14,-0.6 0.34,-1.22 0.53,-1.81 0.19,-0.59 0.36,-1.16 0.58,-1.75 0.65,-1.68 1.18,-3.44 1.95,-5.08l2.14 -4.93c0.46,-1.14 0.87,-2.29 1.21,-3.49 0.35,-1.21 0.69,-2.48 0.9,-3.79 0.05,-0.32 0.11,-0.68 0.17,-1 0.14,-0.84 0.41,-2.89 0.4,-3.7 -0,-0.25 0.04,-0.34 0.04,-0.56l0.06 -2.25c-0.04,-0.32 -0.03,-0.79 -0.03,-1.18 0,-2.27 -0.24,-4.34 -0.49,-6.53 -0.3,-2.63 -0.97,-6.37 -1.66,-8.89 -0.24,-0.88 -0.63,-1.69 -1.02,-2.51 -0.25,-0.5 -0.57,-1.01 -0.91,-1.45 -0.09,-0.11 -0.16,-0.21 -0.25,-0.32 -0.25,-0.34 -0.53,-0.64 -0.83,-0.94 -0.65,-0.65 -1.93,-1.62 -2.74,-1.96 -0.16,-0.07 -0.24,-0.1 -0.39,-0.18 -0.15,-0.08 -0.26,-0.11 -0.42,-0.18 -0.29,-0.12 -0.56,-0.22 -0.87,-0.33 -2.1,-0.68 -4.89,-0.81 -7.18,-0.49 -1.87,0.26 -3.77,0.71 -5.49,1.29 -0.58,0.19 -1.11,0.38 -1.66,0.59 -0.55,0.21 -1.07,0.41 -1.6,0.66l-2.28 1.11c-0.23,0.12 -0.52,0.34 -0.76,0.4 0.04,-0.17 0.02,-0.26 0.05,-0.45l0.15 -1.44c0.09,-0.65 0.15,-1.25 0.24,-1.88 0.34,-2.4 0.79,-4.73 1.37,-7.07l0.69 -2.49c0.08,-0.29 0.18,-0.54 0.25,-0.8l1.73 -4.59c0.1,-0.25 0.22,-0.48 0.33,-0.73 0.1,-0.24 0.24,-0.47 0.34,-0.72l0.36 -0.7c0.6,-1.14 1.22,-2.29 1.94,-3.36 0.62,-0.93 1.13,-1.58 1.76,-2.44 0.09,-0.12 0.14,-0.17 0.24,-0.29 0.08,-0.1 0.16,-0.2 0.24,-0.29 0.08,-0.09 0.17,-0.19 0.24,-0.29 0.71,-0.88 1.56,-1.62 2.35,-2.41 0.26,-0.26 0.56,-0.47 0.83,-0.72 0.27,-0.25 0.6,-0.47 0.88,-0.7 1.25,-1.01 3.43,-2.25 4.97,-2.94 0.87,-0.39 1.77,-0.73 2.69,-1.02 2.89,-0.92 6.05,-1.42 9.18,-1.42l3.56 0.07c0.69,0.06 1.45,0.1 2.15,0.18 4.51,0.56 8.4,1.45 12.57,3.25 1.2,0.52 2.41,1.07 3.55,1.71 0.52,0.29 1.01,0.56 1.5,0.86 0.24,0.14 0.48,0.28 0.72,0.44 0.24,0.17 0.47,0.29 0.71,0.45 1.17,0.78 2.31,1.58 3.41,2.45l1.3 1.06c0.21,0.16 0.4,0.37 0.62,0.54 0.22,0.17 0.4,0.38 0.61,0.56 0.07,0.06 0.09,0.06 0.16,0.12 0.65,0.57 1.59,1.54 2.21,2.17 0.11,0.11 0.16,0.2 0.28,0.32 0.1,0.1 0.21,0.19 0.3,0.3l0.55 0.62c0.39,0.38 0.73,0.83 1.08,1.25 1.35,1.61 2.57,3.31 3.74,5.05 0.75,1.12 1.44,2.28 2.09,3.46 0.05,0.08 0.06,0.13 0.11,0.21 0.37,0.62 0.69,1.28 1.01,1.92l0.76 1.61c0.34,0.83 0.73,1.62 1.02,2.47 0.09,0.26 0.28,0.65 0.3,0.9 -0.68,0 -1.59,-0.18 -2.29,-0.18 -0.15,0 -0.35,0.01 -0.49,-0.01 -1.21,-0.14 -4.1,0.05 -5.11,0.2 -0.51,0.07 -1,0.14 -1.48,0.25 -0.24,0.06 -0.45,0.11 -0.69,0.16 -1,0.2 -2.35,0.75 -3.18,1.16 -0.37,0.18 -0.76,0.41 -1.1,0.63 -3.55,2.37 -5.08,5.96 -5.08,10.45zm-60.53 -3.39l0.07 2.26c0.06,0.72 0.13,1.53 0.14,2.23l0.04 0.64c0.05,1.73 0.14,3.48 0.14,5.26 0,0.67 -0.04,1.22 -0.04,1.87 0,0.31 0.03,0.64 -0.02,0.94 -0.05,0.31 0.01,0.65 -0.03,0.96 -0.03,0.25 -0.04,0.64 -0.06,0.89l-0.04 0.95c-0,0.27 -0.07,0.61 -0.07,0.88 -0.01,0.62 -0.17,1.98 -0.24,2.65 -0.06,0.61 -0.14,1.16 -0.21,1.73 -0.09,0.72 -0.2,1.45 -0.22,2.18 -0.01,0.46 -0.07,0.91 -0.07,1.41l0.13 2.8 0.45 2.8c0.5,2.26 1.31,4.48 2.46,6.48 0.39,0.68 0.82,1.34 1.26,1.99 0.37,0.55 0.8,1.09 1.23,1.6l0.97 1.08c0.4,0.4 1.24,1.29 1.67,1.58 -0.07,0.11 -0.16,0.18 -0.26,0.27 -0.28,0.28 -0.51,0.59 -0.79,0.87 -0.46,0.46 -0.87,0.96 -1.33,1.43l-1.71 1.89c-0.58,0.69 -1.24,1.34 -1.81,2.04 -0.05,0.06 -0.08,0.09 -0.14,0.14 -0.27,0.29 -0.5,0.6 -0.78,0.88 -0.11,0.11 -0.14,0.18 -0.25,0.28 -0.11,0.11 -0.16,0.19 -0.27,0.3l-0.77 0.89c-0.09,0.12 -0.16,0.17 -0.26,0.3l-0.24 0.29c-0.05,0.06 -0.09,0.08 -0.14,0.15l-2.9 3.42c-0.09,0.11 -0.17,0.19 -0.26,0.3 -0.51,0.6 -1.02,1.19 -1.57,1.75 -0.47,0.47 -0.95,0.89 -1.5,1.25 -1.31,0.85 -2.71,1.33 -4.28,0.8 -1.07,-0.36 -1.98,-0.99 -2.84,-1.71 -0.08,-0.07 -0.11,-0.08 -0.19,-0.16 -0.07,-0.07 -0.12,-0.13 -0.2,-0.19 -0.66,-0.55 -2.06,-2.21 -2.49,-2.84 -0.21,-0.31 -0.43,-0.58 -0.64,-0.88 -0.21,-0.31 -0.4,-0.61 -0.61,-0.91 -1.87,-2.82 -3.85,-6.97 -5.14,-10.04 -0.16,-0.37 -0.29,-0.7 -0.45,-1.07l-1.28 -3.27c-0.14,-0.38 -0.28,-0.72 -0.42,-1.1 -0.14,-0.38 -0.27,-0.75 -0.41,-1.11 -0.56,-1.49 -1.04,-3.01 -1.55,-4.53l-2.13 -6.95c-0.24,-0.78 -0.44,-1.58 -0.67,-2.37l-0.48 -1.77c-0.06,-0.23 -0.11,-0.38 -0.17,-0.61 -0.21,-0.83 -0.42,-1.61 -0.62,-2.42 -0.81,-3.25 -1.58,-6.54 -2.31,-9.84 -0.56,-2.52 -1.07,-5.04 -1.5,-7.61 -0.15,-0.87 -0.31,-1.71 -0.43,-2.6 -0.21,-1.53 -0.51,-3.11 -0.63,-4.67 -0.06,-0.73 -0.11,-1.43 -0.11,-2.19 0,-0.29 -0.04,-0.45 -0.04,-0.71l0 -2.22c0,-0.72 0.01,-1.44 0.07,-2.12 0.01,-0.15 -0.01,-0.31 0,-0.46 0.01,-0.23 0.06,-0.58 0.07,-0.81 0.06,-1.12 0.18,-2.2 0.32,-3.24 0.14,-1.01 0.33,-2.02 0.53,-3 0.29,-1.42 0.71,-2.81 1.17,-4.17 0.14,-0.43 0.32,-0.86 0.49,-1.27 0.29,-0.72 0.63,-1.44 0.98,-2.13 0.81,-1.6 2.01,-3.4 3.27,-4.71 0.09,-0.1 0.11,-0.15 0.21,-0.25 1.1,-1.11 2.07,-1.96 3.35,-2.87 0.18,-0.12 0.35,-0.23 0.54,-0.35 0.36,-0.22 0.72,-0.47 1.1,-0.67 0.59,-0.3 1.15,-0.62 1.76,-0.88l1.26 -0.54c0.42,-0.17 0.86,-0.3 1.3,-0.47 0.64,-0.25 2.12,-0.61 2.77,-0.76 2.46,-0.58 5.28,-0.89 8.04,-0.89l2.72 0.04c0.77,-0 1.48,0.1 2.23,0.14 0.24,0.01 0.52,0.02 0.76,0.06 0.48,0.07 0.98,0.09 1.44,0.15 1.86,0.23 3.71,0.51 5.53,0.86 1.32,0.25 2.61,0.53 3.91,0.86l2.55 0.67c0.45,0.11 3.29,0.92 3.69,1.11 -0.23,0.34 -0.84,0.85 -1.12,1.21l-0.74 0.82c-0.43,0.48 -0.84,1 -1.23,1.52l-1.15 1.57c-0.52,0.78 -1.05,1.58 -1.52,2.4l-0.83 1.5c-0.19,0.32 -0.35,0.7 -0.52,1.03 -0.53,1.07 -1.02,2.15 -1.47,3.27 -1.01,2.54 -1.59,4.45 -2.31,7.09 -0.46,1.66 -0.83,3.47 -1.11,5.17l-0.42 2.68c-0.13,0.92 -0.27,1.9 -0.33,2.82l-0.12 1.44c-0.09,0.7 -0.11,1.5 -0.13,2.24l-0.04 0.74c0,0.55 -0.04,0.99 -0.04,1.55zm56.25 -41.8c0.2,0 2.49,-0.45 2.86,-0.5 0.49,-0.07 0.97,-0.16 1.48,-0.21 0.49,-0.06 1,-0.11 1.51,-0.18 0.5,-0.07 1.03,-0.07 1.55,-0.14l1.18 -0.09c0.14,-0.02 0.28,0 0.41,-0.01l5.06 -0.07c0.18,0 0.24,0.03 0.39,0.04 0.15,0.01 0.31,-0.01 0.46,-0l4.12 0.4c1.53,0.22 3.04,0.48 4.55,0.86 1.85,0.46 3.68,1.04 5.45,1.75l3.69 1.71c1.16,0.65 2.26,1.32 3.36,2.04 0.89,0.59 1.73,1.25 2.56,1.92 0.41,0.33 1.11,0.9 1.46,1.26l0.92 0.88c0.31,0.31 0.59,0.59 0.9,0.9l2.1 2.39c0.33,0.42 0.7,0.84 0.95,1.31 0.05,0.1 0.09,0.19 0.15,0.31 0.1,0.19 0.2,0.42 0.27,0.62l0.24 0.68c0.83,2.46 0.87,5.4 0.86,8.21l-0.18 2.93c-0.01,0.35 -0.07,0.8 -0.12,1.15 -0.04,0.34 -0.09,0.77 -0.12,1.11 -0.12,1.11 -0.29,2.18 -0.47,3.27 -0.46,2.79 -1.05,5.52 -1.73,8.26 -0.91,3.63 -1.97,6.97 -3.15,10.52l-2.36 6.39 -2.21 5.27c-0.25,0.56 -0.49,1.15 -0.77,1.71 -0.07,0.14 -0.12,0.27 -0.19,0.41 -0.35,0.71 -0.64,1.43 -1,2.14l-1.02 2.12c-0.08,0.16 -0.14,0.26 -0.22,0.41 -0.29,0.54 -0.55,1.1 -0.82,1.65 -0.14,0.28 -0.29,0.54 -0.42,0.81l-0.87 1.64c-0.41,0.8 -0.94,1.64 -1.33,2.41 -0.41,0.81 -0.91,1.56 -1.35,2.35l-0.94 1.57c-0.14,0.24 -1.4,2.21 -1.44,2.34 -0.27,-0.31 -0.51,-0.65 -0.78,-0.95 0.74,-1.39 1.14,-2 1.77,-3.56 1.27,-3.16 1.83,-6.18 1.83,-9.96 0,-0.09 0,-0.15 0.01,-0.24 0.04,-0.44 -0.1,-3.16 -0.15,-3.82 -0.15,-1.92 -0.42,-3.86 -0.63,-5.76 -0.04,-0.31 -0.08,-0.63 -0.11,-0.95l-0.15 -1.48c-0.01,-0.12 -0.02,-0.34 -0.05,-0.49l-0.06 -0.75c-0.11,-1.5 -0.12,-3.13 0,-4.63 0.19,-2.38 0.46,-3.93 0.79,-6.28 0.14,-0.99 0.31,-2.08 0.41,-3.08 0.02,-0.21 0.02,-0.34 0.05,-0.55 0.17,-1.32 0.17,-2.63 0.17,-3.96 0,-0.19 -0.01,-0.4 0.01,-0.59 0.08,-0.54 0.06,-1.11 -0.03,-1.65 -0.3,-1.69 -1.03,-3.69 -1.69,-5.26 -0.1,-0.24 -0.21,-0.47 -0.3,-0.69 -0.06,-0.14 -0.1,-0.21 -0.15,-0.34 -0.04,-0.1 -0.09,-0.23 -0.15,-0.35l-1.46 -2.99c-0.55,-1.09 -1.37,-2.44 -2,-3.48 -0.13,-0.22 -0.26,-0.39 -0.38,-0.6 -0.61,-1.02 -1.3,-2.01 -2.01,-2.97l-0.86 -1.15c-0.45,-0.54 -0.84,-1.13 -1.31,-1.66l-1.62 -1.88c-0.09,-0.12 -0.13,-0.15 -0.23,-0.26l-0.7 -0.78c-0.25,-0.25 -0.51,-0.47 -0.73,-0.75l-1.51 -1.49c-0.1,-0.09 -0.16,-0.12 -0.27,-0.23l-0.9 -0.83c-0.49,-0.42 -0.97,-0.86 -1.49,-1.27l-2.25 -1.74c-1.14,-0.86 -2.36,-1.63 -3.59,-2.38 -0.84,-0.51 -1.68,-0.99 -2.56,-1.43 -0.24,-0.12 -0.41,-0.22 -0.65,-0.34 -0.12,-0.06 -0.22,-0.11 -0.33,-0.17l-1.01 -0.47c-0.13,-0.06 -0.61,-0.24 -0.68,-0.34z"/>
    <path class="fil1" d="M58.27 46.99l-0.14 0c-0.01,0.64 -0.41,1.04 0.47,2.32 0.53,0.77 1.41,1.54 2.27,1.9 1.48,0.62 3.04,0.42 4.3,-0.51 0.85,-0.62 1.84,-1.66 1.19,-2.79 -0.14,-0.24 -0.47,-0.57 -0.69,-0.72 -1.63,-1.08 -4.5,-1.48 -6.19,-0.92 -0.31,0.1 -0.69,0.26 -0.92,0.49 -0.07,0.07 -0.17,0.22 -0.27,0.22z"/>
    <path class="fil1" d="M110.07 47.1c0,1.25 2.09,2.58 3.57,2.58 0.84,0 1.53,-0.26 2.17,-0.65 0.11,-0.07 0.18,-0.11 0.27,-0.19 1.16,-0.87 2.87,-2.86 0.73,-3.68 -0.69,-0.26 -1.87,-0.35 -2.69,-0.23l-0.78 0.11c-1.1,0.2 -3.27,0.85 -3.27,2.06z"/>
   </g>
  </g>
 </g>
</svg>
