<?xml version="1.0" encoding="UTF-8"?>
<!DOCTYPE svg PUBLIC "-//W3C//DTD SVG 1.1//EN" "http://www.w3.org/Graphics/SVG/1.1/DTD/svg11.dtd">
<!-- Creator: CorelDRAW -->
<svg xmlns="http://www.w3.org/2000/svg" xml:space="preserve" width="36.4398mm" height="12.4155mm" version="1.1" style="shape-rendering:geometricPrecision; text-rendering:geometricPrecision; image-rendering:optimizeQuality; fill-rule:evenodd; clip-rule:evenodd"
viewBox="0 0 313.04 106.66"
 xmlns:xlink="http://www.w3.org/1999/xlink"
 xmlns:xodm="http://www.corel.com/coreldraw/odm/2003">
 <defs>
  <style type="text/css">
   <![CDATA[
    .fil0 {fill:#FEFEFE}
   ]]>
  </style>
 </defs>
 <g id="Capa_x0020_1">
  <metadata id="CorelCorpID_0Corel-Layer"/>
  <g id="_1687238613552">
   <path class="fil0" d="M73.25 31.16l-2.16 3.25c-0.85,1.24 -6.02,9.05 -6.53,9.46l-19.87 -8.34 28.57 -4.37zm-9.39 -31.16l1.28 0c1.71,0.07 3.55,0.43 5.69,1.19l50.87 19.81c1.03,0.45 2.63,1.43 2.65,2.78 -0.89,1.54 -0.71,1.5 -2.75,2.83 -4.09,2.65 -22.14,10.07 -27.02,12.23 -7.82,3.46 -15.64,6.63 -23.33,10.31 -6.49,3.1 -10.27,4.54 -17.35,1.14 -2.49,-1.19 -5.24,-2.32 -7.86,-3.4 -5.28,-2.18 -10.53,-4.39 -15.78,-6.6 -5.29,-2.23 -10.54,-4.35 -15.79,-6.59 -2.61,-1.12 -5.3,-2.19 -7.86,-3.39 -2.85,-1.33 -5.07,-2.1 -6.63,-4.51 0,-1.61 0.84,-2.25 2.44,-3.05 2.85,-1.41 12.28,-4.91 15.55,-6.22l19.55 -7.6c1.32,-0.52 2.6,-0.99 3.96,-1.54l11.76 -4.5c4.16,-1.48 7.19,-2.75 10.59,-2.89zm-29.31 19.05c3.25,-0.2 6.58,0.01 9.68,0.68 8.06,1.73 11.12,6.21 3.72,9.27 -7.04,2.9 -21.82,2.56 -25.93,-2.35 -2.32,-2.77 1.54,-5 3.59,-5.81 2.76,-1.1 5.71,-1.59 8.94,-1.79zm56.86 11.61c-0.3,0.33 -1.93,0.88 -2.35,0.74 -1.86,-0.59 -15.16,-5.99 -16.66,-6.64l18.86 -7.4c4.39,1.86 10.11,4 14.79,5.84 0.66,0.26 1.59,0.49 2.07,0.91l-16.7 6.54zm-33.19 -18.93l-2.7 -5.09c1.19,0.34 2.89,1.09 4.12,1.59 1.32,0.53 2.8,1.18 4.13,1.63 0.8,0.27 6.68,-2.05 8.53,-2.51l-2.13 5.24c0.66,0.43 3.16,1.23 4.08,1.58 0.98,0.37 3.4,1.11 4.07,1.59l-10.64 1.14 -2.42 5.74 -3.92 -6.45 -12.25 -1.1c0.76,-0.42 7.82,-2.92 9.13,-3.36z"/>
   <path class="fil0" d="M-0 79.45c0.02,0.42 0.05,0.71 0.08,0.8 0.82,2.4 9.09,5.45 12.31,6.89 7.25,3.22 15.15,6.25 22.49,9.42l13.51 5.69c1.5,0.64 3.02,1.23 4.44,1.92 6.57,3.19 10.4,3.43 17.41,-0.08 5.69,-2.85 13.78,-6.49 19.79,-8.95l4.44 -1.92c1.58,-0.66 2.96,-1.3 4.52,-1.96 5.09,-2.13 12.94,-5.48 17.76,-7.8 2.19,-1.05 6.98,-3.11 7.55,-5.29 0.19,-0.72 0.07,-11.06 0.07,-12.72 -0.46,0.83 -0.41,1.12 -1.08,1.68 -3.05,2.54 -9.39,5.1 -13.01,6.68 -12.57,5.52 -26.88,11.25 -39.04,17.1 -7.1,3.42 -10.02,4.32 -17.3,1.14 -2.59,-1.14 -5.21,-2.28 -7.85,-3.4 -5.22,-2.21 -10.5,-4.49 -15.77,-6.6 -5.24,-2.1 -10.58,-4.4 -15.78,-6.6 -2.58,-1.09 -11.29,-4.56 -13.31,-6.37 -1,-0.9 -0.71,-0.84 -1.22,-1.52l0 11.89z"/>
   <path class="fil0" d="M-0 47.04l0 0.16 0 0.16 0 0.16 0 0.16 0 0.16 0 0.16 0 0.16 0 0.16 0 0.16 0 0.16 0 0.16 0 0.16 0 0.16 0 0.16 0 0.16 0 0.17 0 0.16 0 0.16 0 0.16 0 0.16 0 0.16 0 0.16 0 0.16 0 0.17 0 0.16 0 0.16 0 0.16 0 0.16 0 0.16 0 0.16 0 0.16 0 0.16 0 0.16 0 0.16 0 0.16 0 0.16 0 0.16 0 0.16 0 0.16 0 0.16 0 0.16 0 0.16 0 0.16 0 0.16 0 0.16 0 0.16 0 0.16 0 0.16 0 0.16 0 0.16 0 0.16 0 0.16 0 0.16 0 0.16 0 0.16 0 0.16 0 0.16 0 0.16 0 0.17 0 0.16 0 0.16 0 0.16 0 0.16 0 0.16 0 1.79c0.09,0.66 0.41,1.2 1.46,2.01 1.36,1.04 2.78,1.53 3.43,1.99l42.61 17.88c2.38,1 4.8,2 7.06,3.09 5.42,2.61 10.56,1.93 15.78,-0.94 2.09,-1.15 4.64,-2.26 6.9,-3.25 4.7,-2.06 9.32,-4.08 14.06,-6.12 7,-3.02 14.24,-6.04 21.18,-9.15l7 -3.14 0.14 -0.11c0.14,-0.1 0.09,-0.06 0.22,-0.15l1.32 -0.76c0.97,-0.58 2.36,-1.47 2.93,-2.45 0.41,-0.71 0.29,-1.38 0.29,-2.4 -0,-3.6 0,-7.2 0,-10.81 -0.67,1.06 -0.01,0.45 -1.22,1.63 -0.44,0.43 -1.05,0.82 -1.62,1.19 -2.93,1.87 -8.18,4.04 -11.4,5.47 -5.17,2.3 -10.38,4.55 -15.63,6.75 -6.94,2.91 -16.57,7 -23.31,10.32 -7.19,3.53 -10.19,4.16 -17.33,1.06 -7.91,-3.43 -15.49,-6.7 -23.54,-9.97l-23.66 -9.97c-1.85,-0.8 -4.78,-2.14 -6.1,-3.68 -0.28,-0.32 -0.32,-0.52 -0.54,-0.84z"/>
   <path class="fil0" d="M-0 25.79l0 0.18c0,3.68 0.01,7.35 0,11.03l0 0.32c0.01,1.61 0.17,1.97 2.1,3.26 0.55,0.37 1.15,0.73 1.77,1.04l1.88 0.93 41.88 17.55c2.3,0.97 4.68,1.95 6.89,3.01 2.29,1.1 5.27,1.97 8.22,1.61 2.73,-0.33 5.3,-1.4 7.45,-2.47 2.23,-1.11 4.45,-2.12 6.74,-3.17 4.54,-2.08 9.22,-4.1 13.87,-6.05 8.22,-3.45 16.09,-6.96 24.21,-10.51 0.76,-0.33 2.88,-1.44 3.47,-1.55 0.75,-0.62 3.04,-1.22 5.17,-3.38 0.6,-0.61 0.71,-1.07 0.7,-2.23 -0.03,-3.85 -0,-7.72 -0,-11.57 -0.89,1.54 -0.71,1.5 -2.75,2.83 -4.09,2.65 -22.14,10.07 -27.02,12.23 -7.82,3.46 -15.64,6.63 -23.33,10.31 -6.49,3.1 -10.27,4.54 -17.35,1.14 -2.49,-1.19 -5.24,-2.32 -7.86,-3.4 -5.28,-2.18 -10.53,-4.39 -15.78,-6.6 -5.29,-2.23 -10.54,-4.35 -15.79,-6.59 -2.61,-1.12 -5.3,-2.19 -7.86,-3.39 -2.85,-1.33 -5.07,-2.1 -6.63,-4.51z"/>
   <path class="fil0" d="M243.1 63.34c-4.23,0 -5.29,-0.68 -8.07,-2.81l-1.96 -2.2c-1.12,-1.54 -2.2,-4.15 -2.2,-6.24 0,-2.38 -0.02,-3.78 1.1,-5.99 0.76,-1.5 1.62,-2.74 2.78,-3.95 0.25,-0.26 0.4,-0.42 0.7,-0.65 3.55,-2.77 7.69,-3.15 11.69,-1.15 1.45,0.73 2.11,1.45 3.21,2.54 1.14,1.13 1.63,2.09 2.29,3.45 1.74,3.59 1.24,7.94 -0.77,11.34 -1.6,2.7 -5,5.66 -8.77,5.66zm10.39 -30.08c-3.89,-2.61 -6.77,-3.67 -11.86,-3.67 -4.35,0 -8.61,1.76 -11.7,4.07 -10.13,7.56 -11.89,23.52 -2.94,32.46 2.02,2.02 3.04,3.04 5.76,4.39 3.82,1.9 6.05,2.12 10.35,2.12 2.72,0 6.2,-1.06 8.4,-2.24l2.24 -1.3c0.66,2.84 4.9,5.08 7.74,2.23 0.69,-0.69 1.45,-1.72 1.44,-2.84 -0,-0.47 -0.13,-0.67 -0.13,-1.96 0.01,-5.94 0.13,-48.43 -0.03,-49.62 -0.23,-1.7 -1.18,-3.08 -2.62,-3.86 -2.01,-1.08 -4.75,-0.15 -6.01,1.77 -0.91,1.38 -0.63,3.62 -0.63,5.73 0,4.24 0,8.48 0,12.72z"/>
   <path class="fil0" d="M211.79 46.83l-23.97 0c1.08,-4.65 4.94,-7.76 9.53,-8.7 4.14,-0.85 8.67,1.34 11.42,3.77 0.52,0.46 0.85,0.87 1.29,1.4 0.51,0.62 1.72,2.54 1.74,3.52zm-33.38 3.79c0,5.58 2.36,11.77 6.21,15.56 0.28,0.28 0.41,0.43 0.64,0.7 0.24,0.27 0.41,0.36 0.7,0.64 1.49,1.47 2.97,2.35 4.88,3.31 6.25,3.15 15.81,2.34 21.46,-1.86 1.43,-1.06 3.44,-2.24 3.51,-4.55 0.09,-3.06 -3.8,-5.23 -6.83,-3.29 -0.7,0.45 -0.9,0.72 -2.1,1.45 -4.04,2.48 -10.5,1.71 -14.29,-1.2 -0.51,-0.39 -1.03,-0.84 -1.5,-1.32 -1.37,-1.38 -2.86,-3.5 -2.9,-5.53l26.78 0c2,0 3.83,-1.07 4.45,-2.88 0.13,-0.4 0.44,-1.59 0.44,-2.01 0,-2.7 -1.05,-6.15 -1.96,-7.95l-1.83 -3.18c-0.68,-1.03 -1.42,-1.85 -2.29,-2.72 -4.21,-4.21 -8.13,-6.21 -14.7,-6.21 -4.62,0 -9.9,1.8 -13.11,4.99 -1.73,1.72 -2.12,1.96 -3.73,4.1l-1.01 1.56c-1.75,3.01 -2.82,6.78 -2.82,10.39z"/>
   <path class="fil0" d="M280.76 42.06c0,1.78 0.64,4.46 1.61,5.73l1.15 1.41c2.24,2.89 7.97,5.04 11.6,5.64 4.53,0.75 4.01,0.84 7.49,2.54 2.16,1.06 1.1,3.53 -1.31,4.73 -2.33,1.16 -3.06,1.1 -5.62,1.1 -2.05,0 -3.93,-0.65 -5.44,-1.41l-1.46 -0.87c-0.71,-0.47 -1.07,-0.84 -1.71,-1.34 -3.1,-2.46 -7.16,0.05 -7.16,3.13 0,2.45 0.92,3.28 2.78,4.68 3.19,2.41 8.15,4.77 12.26,4.98 0.63,0.03 1.03,-0.02 1.65,0.07 0.67,0.1 0.9,-0.07 1.66,-0.07 4.48,-0.01 11.11,-3.29 13.29,-7.38 0.96,-1.81 1.5,-3.84 1.51,-5.85l0 -0.09c-0.01,-2 -0.53,-3.97 -1.66,-5.68 -0.39,-0.58 -0.63,-1.02 -1.03,-1.54 -2.93,-3.83 -9.11,-5.59 -13.8,-6.25 -2.22,-0.31 -3.68,-0.95 -5.45,-2.01 -3.33,-1.98 1.96,-4.95 4.82,-4.95 6.65,0 8.52,5.81 13.09,3.43 1.68,-0.87 2.07,-2.28 2.07,-4.16 0,-2.49 -2.17,-3.68 -3.78,-4.65l-1.88 -1.05c-5.22,-2.63 -10.2,-3.6 -15.77,-1.42 -4.14,1.62 -7.07,4.04 -8.42,8.34 -0.19,0.59 -0.47,2.17 -0.47,2.95z"/>
   <path class="fil0" d="M154.44 34.61l0 33.75c0,0.71 0.15,1.36 0.37,1.84 0.34,0.76 0.4,0.8 0.95,1.38 3,3.16 6.86,1.03 7.75,-1.6 0.5,-1.48 0.23,-5.34 0.23,-7.35 0,-2.49 0,-4.97 0,-7.46 0,-2.9 -0.05,-4.62 0.79,-6.8 1.63,-4.27 5.72,-7.45 10.03,-8.68 1.09,-0.31 2.23,-0.24 3.24,-0.55 2.85,-0.88 4.51,-5 1.82,-7.67 -3.09,-3.05 -10.98,-0.64 -14.55,2.51 -0.4,0.35 -0.65,0.73 -1.07,1.01 0,-2 -1.27,-3.75 -2.69,-4.4 -1.89,-0.88 -4.14,-0.43 -5.41,0.7 -0.85,0.75 -1.44,1.79 -1.44,3.33z"/>
   <path class="fil0" d="M267.31 34.24l0 34.36c0,2.05 2.13,4.28 4.16,4.28 1.15,0 1.52,0.04 2.54,-0.51 1.71,-0.93 2.59,-2.38 2.59,-4.38l0 -33.02c0,-4.08 -4,-6.94 -7.74,-3.83 -0.91,0.75 -1.55,1.78 -1.55,3.1z"/>
   <path class="fil0" d="M267.31 16.88l0 2.57c0,2.04 2.12,4.28 4.16,4.28 1.66,0 2.72,0.1 4.06,-1.57 1.5,-1.88 1.54,-6.23 -0.17,-7.94 -0.46,-0.47 -0.64,-0.73 -1.27,-1.05 -3.78,-1.9 -6.77,1.37 -6.77,3.71z"/>
  </g>
 </g>
</svg>
