<?xml version="1.0" encoding="UTF-8"?>
<!DOCTYPE svg PUBLIC "-//W3C//DTD SVG 1.1//EN" "http://www.w3.org/Graphics/SVG/1.1/DTD/svg11.dtd">
<!-- Creator: CorelDRAW -->
<svg xmlns="http://www.w3.org/2000/svg" xml:space="preserve" width="58.3864mm" height="25.8992mm" version="1.1" style="shape-rendering:geometricPrecision; text-rendering:geometricPrecision; image-rendering:optimizeQuality; fill-rule:evenodd; clip-rule:evenodd"
viewBox="0 0 647.27 287.12"
 xmlns:xlink="http://www.w3.org/1999/xlink"
 xmlns:xodm="http://www.corel.com/coreldraw/odm/2003">
 <defs>
  <style type="text/css">
   <![CDATA[
    .fil0 {fill:#FEFEFE;fill-rule:nonzero}
   ]]>
  </style>
 </defs>
 <g id="Capa_x0020_1">
  <metadata id="CorelCorpID_0Corel-Layer"/>
  <g id="_1689415151328">
   <g>
    <path class="fil0" d="M143.32 115.99l-49.76 16.25 -43.29 19.11 -12.11 3.2c-3.09,2.93 -6.32,5.9 -9.82,8.91 -3.84,3.31 -7.41,6.32 -10.15,8.5 -3.05,2.41 -7.56,6.92 -9.85,9.78 -3.42,4.29 -6.13,8.84 -7.3,12.34 -2.07,6.32 -1.05,12.71 2.93,18.62 5.12,7.52 15.31,15.19 27.19,20.42 6.06,2.67 16.25,6.09 23.92,8.01 12.75,3.23 37.42,6.73 51,7.26 2.74,0.11 6.43,0.11 6.58,0 0.3,-0.19 2.41,-4.21 4.85,-9.21 8.35,-17.04 14.37,-33.02 17.64,-46.67 1.96,-8.27 3.5,-19.29 4.51,-32.34 0.26,-3.65 0.38,-15.87 0.15,-20.01 -0.34,-6.77 -0.94,-12.26 -1.88,-17.64 -0.15,-0.79 -0.19,-1.51 -0.11,-1.54 0.15,-0.11 0.6,-0.26 6.73,-2.03l-1.24 -2.93 0 -0 0 0 0 0zm-11.36 6.66c0.45,0 1.65,11.55 1.95,18.84 0.08,1.54 0.04,2.56 -0.04,2.56 -0.3,0 -6.36,-3.57 -10.68,-6.28 -3.76,-2.37 -10.91,-7.11 -12.03,-8.01 -0.38,-0.26 -0.34,-0.3 2.74,-1.35 5.23,-1.77 17.64,-5.75 18.05,-5.75l0 0zm-25.35 8.35c0.34,0 1.2,0.49 3.27,1.77 7.75,4.85 18.28,10.72 22.79,12.67 1.39,0.6 1.54,0.38 -1.65,2.56 -6.85,4.66 -15.38,9.25 -25.84,13.88 -1.84,0.83 -3.38,1.47 -3.42,1.47 -0.08,0 0.15,-0.94 0.45,-2.07 2.52,-9.37 3.95,-18.84 4.03,-26.44 0.04,-3.76 0.04,-3.76 0.38,-3.87 -0.08,0.04 -0.04,0.04 0,0.04l0 0zm-5.23 1.99c0.23,0.23 0.08,8.65 -0.23,10.94 -0.68,5.49 -1.73,10.61 -3.46,16.36 -0.41,1.39 -0.79,2.56 -0.86,2.63 -0.15,0.19 -5.3,-4.85 -7,-6.81 -2.93,-3.38 -5.23,-6.77 -6.92,-10.08 -0.86,-1.69 -2.22,-5 -2.11,-5.11 0.6,-0.41 20.42,-8.09 20.57,-7.94l-0 0zm-24.6 9.67c0.04,0 0.07,0 0.11,0.04 0.07,0.08 0.34,0.68 0.56,1.35 1.2,3.27 3.91,8.09 6.24,11.17 2.56,3.39 5.91,7 8.69,9.36 0.9,0.75 1.73,1.47 1.84,1.58 0.23,0.23 0.3,0.19 -5.83,2.52 -7.11,2.71 -14.86,5.42 -23.73,8.27 -1.97,0.56 -4.28,1.42 -6.3,2 -0.34,0.11 -0.23,-0.08 0.75,-1.62 4.4,-6.88 11.09,-20.38 14.86,-29.94 0.64,-1.66 1.28,-3.31 1.39,-3.69 0.15,-0.53 0.34,-0.72 0.83,-0.98 0.26,-0.07 0.53,-0.15 0.64,-0.15l-0.05 0.07zm-7.52 3.12c0.11,0.08 -1.8,4.1 -3.69,7.78 -3.65,7.11 -7.63,14.1 -12.98,22.6 -0.9,1.47 -1.77,2.82 -1.88,2.97 -0.19,0.26 -0.26,0.19 -0.86,-0.98 -1.28,-2.52 -2.33,-5.75 -2.9,-8.73 -0.56,-2.93 -0.45,-8.05 0.19,-11.21 0.49,-2.33 0.45,-2.29 1.58,-2.86 4.81,-2.44 20.38,-9.74 20.53,-9.59zm64.88 2.63l0 1.58c0,8.39 -0.9,19.89 -2.22,28.28 -0.23,1.47 -0.41,2.67 -0.45,2.71 0,0 -1.09,-0.3 -2.37,-0.68 -5.64,-1.77 -11.77,-4.36 -17.3,-7.41 -3.65,-1.99 -8.95,-5.27 -8.8,-5.42 0.04,-0.04 1.62,-0.86 3.46,-1.84 7.37,-3.84 14.44,-7.97 20.57,-12.07 2.29,-1.54 5.75,-4.02 6.51,-4.7l0.6 -0.45 0 0zm-93.27 11.13c0.15,0 0.11,0.3 -0.11,1.66 -0.15,0.98 -0.34,2.78 -0.41,4.02 -0.3,5.49 0.6,9.55 3.31,15.12 0.75,1.54 1.35,2.82 1.32,2.86 -0.26,0.23 -25.16,7.52 -32.98,9.67 -2.33,0.64 -4.36,1.2 -4.51,1.24 -0.26,0.08 -0.3,0.04 -0.19,-0.6 0.86,-5.53 5.08,-12.75 10.94,-18.84 3.91,-4.06 7.03,-6.43 12.37,-9.48 3.84,-2.18 9.74,-5.45 10.19,-5.6 0,-0.04 0.04,-0.04 0.08,-0.04l0 0zm58.67 10.49c0.04,-0.04 0.94,0.45 2.03,1.09 8.05,4.66 19.26,8.99 28.81,11.21l0.87 0.19 -1.2 0.68c-5,2.78 -21.44,9.63 -38.25,15.91 -2.44,0.9 -4.85,1.81 -5.3,1.99 -0.45,0.19 -0.86,0.3 -0.86,0.26 0,-0.04 0.68,-1.35 1.54,-2.97 4.7,-8.8 9.44,-19.52 11.85,-26.97 0.3,-0.72 0.49,-1.35 0.53,-1.39zm-5.98 1.96c0.04,0.04 -0.26,0.83 -0.64,1.73 -3.27,7.94 -7.56,16.59 -13.05,26.29 -1.39,2.48 -2.56,4.48 -2.6,4.48 -0.04,0 -1.17,-0.68 -2.52,-1.5 -7.97,-4.89 -15.04,-10.91 -19.67,-16.74l-0.68 -0.83 3.42 -0.94c12.26,-3.35 22.68,-6.96 33.02,-11.4 1.47,-0.6 2.67,-1.09 2.71,-1.09l0 0zm37.16 12.98c0,0 0.04,0.04 0,0 0.04,0.86 -1.88,8.61 -3.46,14.22 -1.32,4.7 -2.45,8.39 -4.51,14.89 -0.9,2.86 -1.69,5.23 -1.73,5.23 -0.04,0 -0.26,-0.04 -0.49,-0.11 -11.17,-2.03 -21.17,-4.85 -30.58,-8.61 -2.63,-1.05 -6.39,-2.75 -6.62,-2.93 -0.08,-0.08 2.18,-1.13 5.04,-2.37 17.11,-7.48 34.86,-15.98 40.96,-19.63 0.71,-0.45 1.28,-0.68 1.39,-0.68l0 0zm-85.79 2.93c0.08,0.07 -4.7,6.96 -11.4,16.32 -2.33,3.27 -5.04,7.11 -6.06,8.54 -1.02,1.43 -2.56,3.69 -3.42,5.04l-1.58 2.45 -1.69 -1.43c-1.99,-1.66 -5.45,-5.19 -7,-7.15 -3.23,-4.02 -5.42,-8.27 -6.28,-12.15 -0.41,-1.8 -0.41,-2.71 -0.04,-2.82 0.56,-0.15 10.61,-2.52 20.01,-4.7 5.23,-1.2 11.28,-2.63 13.46,-3.16 2.18,-0.53 3.95,-0.94 3.99,-0.94l0 0zm4.81 1.84l1.2 1.35c5.42,6.06 10.94,10.53 17.64,14.44 1.2,0.68 2.11,1.28 2.03,1.32 -0.26,0.19 -23.24,8.35 -33.89,12.03 -5.98,2.11 -10.91,3.8 -10.94,3.8 -0.04,0 -0.38,-0.23 -0.75,-0.49l-0.68 -0.49 1.09 -1.58c3.53,-5.12 7.97,-10.72 17.64,-22.38l6.66 -8.01zm30.01 21.47c0.04,-0.04 1.69,0.56 3.72,1.32 4.89,1.84 8.76,3.01 13.95,4.32 6.39,1.62 15.65,3.2 21.1,3.65 0.83,0.08 1.28,0.15 1.13,0.26 -0.26,0.15 -5.79,1.99 -9.85,3.27 -6.47,2.03 -26.21,7.86 -42.31,12.49 -2.97,0.87 -5.53,1.58 -5.68,1.62 -0.38,0.08 -1.62,-0.26 -1.62,-0.41 0,-0.08 0.9,-1.24 1.99,-2.52 5.42,-6.47 10.79,-13.69 15.27,-20.53 1.24,-1.88 2.29,-3.42 2.29,-3.46l0 0zm-6.62 0.19c0.04,0.04 -2.63,4.32 -7.3,11.7 -1.99,3.12 -4.21,6.66 -5,7.9 -0.75,1.2 -1.88,3.08 -2.52,4.14l-1.09 1.92 -0.56 -0.15c-1.35,-0.38 -10.87,-3.72 -13.39,-4.74 -3.12,-1.24 -6.36,-2.75 -8.76,-4.02 -3.01,-1.62 -6.77,-4.03 -6.47,-4.1 0.08,-0.04 5.23,-1.43 11.43,-3.12 16.47,-4.48 25.61,-7.07 31.59,-8.95 1.09,-0.34 2.03,-0.6 2.07,-0.56l0 0zm46.82 10.98l0.04 0c0.15,0.38 -5.94,17.3 -8.16,22.64 -0.49,1.2 -0.68,1.5 -0.94,1.47 -0.64,-0.04 -9.48,-1.28 -14.86,-2.07 -9.36,-1.43 -25.09,-4.17 -29.03,-5.08l-0.9 -0.19 5.6 -1.28c12.04,-2.71 17.83,-4.17 23.7,-5.98 7.41,-2.26 14.74,-5.08 22.15,-8.54 1.17,-0.53 2.14,-0.94 2.41,-0.98l0 0z"/>
    <path class="fil0" d="M92.02 0c-0.83,-0.11 -14.18,4.7 -22.79,8.2 -11.62,4.74 -20.65,9.25 -26.21,13.16 -2.07,1.47 -4.66,4.06 -5.08,5.08 -0.15,0.38 -0.23,0.83 -0.23,1.28l5.04 4.78 12 3.84 28.55 5.12 32.64 5.6 0.34 -2.82c-0.11,0 -0.19,-0.04 -0.3,-0.04l-4.29 -0.68 -0.86 -1.54c-4.44,-7.82 -9.33,-17.53 -12.19,-24.07 -2.22,-5.08 -4.33,-10.94 -5.49,-15.16 -0.64,-2.56 -0.71,-2.71 -1.13,-2.75l0 -0 0 0 0 0zm-0.6 1.92l0.04 0c0.04,0.04 0.19,1.09 0.34,2.33 0.64,5.27 1.8,10.34 3.65,15.83 1.39,4.14 1.39,3.91 -0.23,3.42 -3.84,-1.05 -21.02,-4.02 -33.47,-5.75 -1.99,-0.26 -3.68,-0.53 -3.68,-0.56 -0.15,-0.15 8.99,-4.93 13.01,-6.81 5.15,-2.37 19.29,-8.27 20.35,-8.46l0 0zm-36.26 16.85l1.47 0.49c7.97,2.71 28.02,6.55 39.08,7.45 1.24,0.11 2.29,0.23 2.33,0.23 0.04,0.04 -1.01,0.6 -2.37,1.24 -5.34,2.67 -11.21,5.94 -15.27,8.46 -1.2,0.75 -2.29,1.35 -2.44,1.35 -0.15,0 -0.94,-0.15 -1.77,-0.26l-1.5 -0.23 -3.76 -3.69c-6.62,-6.43 -11.81,-11.39 -13.8,-13.28l-1.96 -1.77 0 0zm-1.5 1.17l5.3 6.62c2.9,3.65 5.83,7.22 6.47,8.01 0.64,0.79 1.17,1.43 1.13,1.47 -0.15,0.11 -7.67,-1.35 -11.66,-2.26 -4.1,-0.94 -5.79,-1.39 -8.31,-2.18l-2.07 -0.68 0 -0.53c0.04,-2.52 3.23,-6.28 8.65,-10.12l0.49 -0.34zm45.06 9.03c0.15,0 0.34,0.34 0.79,1.35 1.28,2.82 5.27,10.42 6.24,11.88 0.3,0.49 0.83,0.53 -4.48,-0.34 -12.75,-2.07 -16.85,-2.75 -16.85,-2.82 0,-0.04 0.38,-0.3 0.86,-0.56 3.95,-2.18 7.94,-4.96 11.47,-7.94 0.87,-0.71 1.66,-1.39 1.81,-1.5 0.04,-0.08 0.11,-0.11 0.15,-0.08l0 0z"/>
    <path class="fil0" d="M38.2 25.91c0,0 -0.83,1.32 -0.04,3.27 0.49,1.2 1.92,2.67 3.54,4.17 0,0 16.74,16.32 18.77,18.65 9.25,10.68 13.28,21.21 13.65,35.73 0.23,9.33 -1.54,17.53 -5.94,27.04 -7.82,17.07 -24.33,35.92 -49.79,56.83l3.72 -1.24c2.41,-1.81 5.68,-3.72 13.35,-7.94 17.71,-9.7 37.65,-18.62 62.09,-27.79 35.2,-13.24 93.08,-28.73 126.03,-33.77l3.42 -0.53 -0.53 -0.83c-3.01,-4.66 -5.08,-7.56 -7.56,-10.64 -7.22,-8.95 -15.98,-16.21 -26.7,-22.23 -14.74,-8.24 -33.81,-14.67 -57.96,-19.44 -4.55,-0.9 -14.55,-2.63 -22.68,-3.87 -17.23,-2.67 -28.36,-4.51 -40.62,-6.62 -4.4,-0.75 -10.98,-1.88 -15.34,-2.82 -2.26,-0.49 -6.58,-1.51 -9.97,-2.67 -2.71,-1.05 -6.62,-2.11 -7.45,-5.3l0 -0zm9.7 9.4c0.04,-0.04 0.64,0.19 1.43,0.45 1.43,0.49 3.27,1.05 5.45,1.66 1.64,0.45 3.33,0.92 4.96,1.33 2.26,0.56 4.14,1.09 4.17,1.09 0.26,0.26 4.06,12.41 5.34,17.07 0.49,1.77 0.86,3.27 0.83,3.27 -0.04,0.04 -0.45,-0.6 -0.94,-1.47 -4.4,-7.75 -11.36,-15.61 -19.41,-21.93 -1.05,-0.75 -1.84,-1.43 -1.84,-1.47l0.01 -0.02zm18.5 5.12c0.19,0 1.02,0.11 2.03,0.34 6.39,1.43 17.87,3.61 25.2,4.85 1.24,0.19 2.22,0.41 2.22,0.49 0,0.08 -0.45,0.34 -1.02,0.64 -1.24,0.64 -6.24,3.61 -7.9,4.74 -4.17,2.78 -7.94,5.79 -10.64,8.5 -1.09,1.09 -2.03,1.99 -2.03,1.99 0,0 -0.22,-0.64 -0.41,-1.43 -1.35,-5.23 -4.17,-12.98 -6.73,-18.43 -0.41,-0.86 -0.75,-1.65 -0.75,-1.73 0,0.08 0,0.04 0.04,0.04l0 0zm32.57 6.2c0.23,0.08 0.6,1.35 1.35,4.17 1.39,5.45 2.03,11.55 1.81,17.23 -0.08,1.58 -0.15,3.05 -0.23,3.23l-0.11 0.38 -1.96 -0.64c-4.02,-1.28 -10.57,-3.2 -16.17,-4.78 -3.2,-0.87 -5.79,-1.66 -5.79,-1.73 0,-0.23 4.66,-4.89 6.66,-6.66 3.8,-3.35 14.1,-11.32 14.44,-11.21l0 -0zm2.6 0.38c0.11,-0.11 15.57,2.56 22.6,3.91 5.23,1.02 12.83,2.6 13.28,2.78 0.23,0.08 -0.56,0.53 -3.09,1.66 -9.93,4.48 -17.3,8.5 -24.63,13.39 -1.92,1.28 -3.54,2.33 -3.57,2.33 -0.04,0 -0.08,-1.09 -0.08,-2.41 0,-7.15 -1.43,-14.37 -4.06,-20.46 -0.26,-0.6 -0.49,-1.17 -0.45,-1.2l0 0zm39.98 7.9c0.11,0.11 -0.38,3.16 -0.83,4.96 -1.35,5.6 -5,13.92 -9.48,21.74 -0.79,1.39 -1.51,2.52 -1.58,2.56 -0.07,0.04 -1.09,-0.53 -2.26,-1.2 -4.36,-2.56 -9.33,-4.96 -14.74,-7.22 -1.5,-0.64 -2.82,-1.17 -2.86,-1.24 -0.26,-0.23 11.85,-8.24 18.24,-12.07 5.08,-3.08 13.35,-7.67 13.5,-7.52l0 0zm2.86 0.45c0.34,0 7.18,1.88 10.76,2.93 8.84,2.63 18.99,6.36 25.61,9.37l2.75 1.24 -1.92 0.45c-16.17,3.72 -30.01,8.01 -43.36,13.43 -1.09,0.45 -2.07,0.83 -2.14,0.83 -0.08,0 0.3,-0.86 0.79,-1.92 4.02,-8.54 6.62,-17.45 7.26,-25.05 0.04,-0.72 0.15,-1.28 0.26,-1.28l0 0zm-68.15 15.65c0.11,-0.11 5.34,1.13 8.16,1.92 4.29,1.2 13.39,4.25 13.39,4.48 0,0.04 -1.02,0.9 -2.22,1.96 -4.93,4.1 -9.67,8.42 -15.35,13.92 -1.69,1.62 -3.12,2.93 -3.2,2.93 -0.08,0 -0.11,-0.23 -0.08,-0.53 0.86,-6.32 0.68,-14.44 -0.53,-22.68 -0.11,-1.05 -0.23,-1.96 -0.19,-1.99zm109.86 0.11c0.07,0.07 -2.41,3.99 -3.99,6.2 -2.26,3.23 -5.57,7.52 -13.05,16.92 -3.95,4.96 -8.39,10.57 -9.85,12.45 -1.5,1.88 -2.74,3.46 -2.78,3.46 -0.04,0 -0.53,-0.68 -1.05,-1.5 -4.21,-6.32 -9.25,-11.85 -15.23,-16.81 -1.13,-0.94 -2.37,-1.96 -2.78,-2.26 -0.41,-0.3 -0.75,-0.6 -0.75,-0.64 0,-0.11 6.39,-2.86 11.25,-4.81 8.5,-3.46 20.08,-7.6 28.77,-10.27 4.55,-1.43 9.4,-2.82 9.48,-2.74l0 0zm2.9 0.75c0.15,-0.04 1.05,0.41 2.14,1.05 9.14,5.23 18.09,11.96 25.16,18.88 1.99,1.96 6.92,7.07 6.84,7.11 0,0 -1.73,0.15 -3.76,0.3 -15.83,1.2 -36.1,4.55 -55.59,9.25 -1.32,0.3 -2.48,0.56 -2.56,0.56 -0.08,0 1.39,-1.47 3.23,-3.23 11.43,-11.02 16.66,-17.98 22.83,-30.39 0.86,-1.84 1.62,-3.42 1.69,-3.54 -0.04,0 -0.04,0 0,0l-0 0zm-83.76 8.58c0.53,0.11 5.42,2.41 9.1,4.25 3.39,1.69 8.46,4.4 8.73,4.63 0.04,0.04 -1.77,0.98 -3.99,2.07 -7.07,3.54 -13.13,6.88 -19.45,10.72 -1.8,1.09 -3.31,1.99 -3.35,1.99 -0.15,0 -0.11,-0.15 0.9,-1.99 3.38,-6.17 6.09,-13.54 7.63,-20.72 0.15,-0.56 0.3,-0.94 0.41,-0.94zm-4.89 0.9c0.11,0.11 -1.17,4.74 -1.96,7.26 -1.54,4.78 -4.14,10.76 -6.66,15.27 -0.6,1.05 -1.5,2.59 -1.99,3.46l-0.94 1.5 -2.11 -2.03c-2.44,-2.37 -4.44,-3.84 -7,-5.15 -1.02,-0.53 -1.8,-0.98 -1.8,-1.05 0,-0.3 6.43,-6.13 11.36,-10.34 3.54,-3.05 10.98,-9.03 11.09,-8.91zm29.9 12.3l1.84 1.2c4.21,2.75 9.18,6.39 12.98,9.59 2.14,1.77 6.28,5.49 7.11,6.39l0.45 0.49 -3.05 0.86c-17.23,4.78 -30.54,9.03 -46.07,14.74 -1.73,0.64 -3.2,1.17 -3.31,1.17 -0.23,0 -0.41,0.19 3.46,-3.39 9.93,-9.14 18.73,-19.22 25.27,-29.03l1.32 -2.03 0 -0zm-7.86 1.96c0.07,0.08 -5.08,7.33 -8.16,11.43 -3.68,4.89 -10.23,13.09 -14.74,18.43 -1.88,2.22 -3.5,4.06 -3.57,4.1 -0.11,0.04 -0.15,-0.53 -0.15,-1.39 0,-4.55 -1.17,-9.4 -3.2,-13.54 -0.87,-1.73 -1.02,-2.14 -0.83,-2.33 0.71,-0.64 11.66,-6.88 18.58,-10.61 4.66,-2.48 11.96,-6.17 12.07,-6.09l0 0zm-47.54 11.66c0.11,0 0.98,0.45 1.96,0.98 2.41,1.32 4.55,2.78 6.47,4.36 0.08,0.07 -0.9,0.86 -2.18,1.8 -3.57,2.56 -8.99,6.66 -12.15,9.18 -3.31,2.63 -3.42,2.71 -3.05,2.14 2.48,-3.8 3.72,-5.94 5.04,-8.69 1.17,-2.44 2.33,-5.34 3.16,-7.86 0.3,-1.09 0.68,-1.92 0.75,-1.92zm12.68 9.93c0.19,-0.04 0.41,0.3 1.43,1.81 2.14,3.2 3.8,7.48 4.21,10.94l0.07 0.75 -5.15 1.99c-9.21,3.57 -17.71,7.11 -23.47,9.74 -1.62,0.75 -4.44,2.11 -6.28,3.01 -1.84,0.94 -3.35,1.65 -3.35,1.62 0,-0.04 1.17,-0.9 2.6,-1.96 11.25,-8.16 20.99,-17.11 28.28,-26.06 0.79,-0.94 1.51,-1.81 1.58,-1.84l0.08 0zm-5.83 1.43c0.15,0.15 -4.14,5 -7.07,7.97 -7.26,7.41 -14.44,13.2 -23.36,18.84 -1.13,0.71 -2.14,1.35 -2.26,1.43 -0.26,0.15 0.08,-0.23 3.99,-4.48 2.48,-2.67 4.36,-4.93 6.51,-7.71 1.43,-1.84 1.69,-2.11 3.76,-3.57 5.53,-3.99 18.28,-12.64 18.43,-12.49l0 0z"/>
   </g>
   <path class="fil0" d="M243.04 185.24c-0.79,0 -1.57,0.08 -2.35,0.08 -15.88,0.85 -26.59,7.83 -32.85,21.48 -5.35,12.34 -4.77,28.47 0.06,40.89 5.62,12.13 14.69,18.54 29.84,20.95 3.21,0.53 5.36,2.28 11.56,9.53l7.64 8.95 13.86 0 -9.21 -9.29c-5.09,-5.09 -9.21,-9.53 -9.21,-9.92 0,-0.39 1.95,-1.24 4.31,-1.96 7.77,-2.35 14.23,-8.36 18.75,-17.56 3.66,-7.39 4.18,-9.68 4.7,-18.87 1.37,-27.37 -13.06,-44.48 -37.09,-44.29l0 0.01zm12.15 71.58c-6.74,3.26 -16.53,3.92 -22.92,1.57 -6.61,-2.43 -13,-9.29 -15.88,-17.05 -3.2,-8.49 -2.74,-24.16 0.91,-31.21 5.88,-11.23 13.65,-16.4 25.01,-16.4 16.85,0 26.44,10.32 27.69,29.72 0.99,16.19 -4.43,28.34 -14.81,33.37l-0.01 0.01zm239.33 -48.2c-5.81,0 -10.26,2.35 -13.26,6.99l-2.35 3.67 0 -9.54 -10.06 0 0 57.22 10.05 0 0 -18.29c0,-16.72 0.21,-18.68 2.55,-23.25 3.22,-6.27 8.76,-9.4 14.12,-7.91l3.59 1.05 0 -9.92 -4.64 0 0 -0.02zm-59.09 -0.52c-1.97,0 -4.06,0.26 -6.14,0.72 -13.46,3.52 -21.04,16.4 -20.58,29.66 0,11.1 2.16,16.65 7.51,22.47 10.97,9 20.89,9.72 34.28,4.89 2.28,-0.97 4.77,-2.1 4.77,-2.1l0 -9 -4.77 2.47c-10.84,4.72 -19,4.72 -25.54,-0.84 -4.17,-4.25 -6.01,-9.34 -6.85,-15.15l40.55 0 0 -7.71c0,-15.73 -9.47,-25.66 -23.25,-25.4l0.01 0zm-16.4 25.09c0,0 1.5,-9.81 7.05,-13.66 2.68,-1.89 5.74,-2.8 8.75,-2.8 3.01,0 6.01,0.97 8.49,2.87 5.09,3.92 5.95,13.52 5.95,13.52l-30.24 0 0 0.07 0 0zm-242.47 -10.32c-10.9,-6.61 -15.74,-11.37 -15.15,-16.99 1.69,-15.54 20.89,-13.39 31.53,-7.51l0.08 -10.46c0,0 -5.88,-2.55 -14.31,-2.68 -12.93,-0.2 -21.28,4.04 -25.2,12.67 -5.75,12.73 -0.66,22.33 17.75,33.04 10.33,6.01 14.9,11.23 14.9,16.92 0,11.76 -14.18,15.86 -28.8,8.48 -3.01,-1.5 -5.56,-2.75 -5.69,-2.75 -0.53,3.33 -0.25,11.31 -0.25,11.31 0,0 4.49,1.89 11.23,3.19 16.71,3.33 31.93,-4.51 33.36,-17.24 1.25,-11.95 -3.07,-18.22 -19.45,-28.01l-0 0.01 0 0zm406.97 -14.9c-1.96,0 -4.04,0.27 -6.22,0.73 -13.44,3.52 -21.01,16.4 -20.5,29.66 0,11.08 2.15,16.58 7.5,22.39 10.97,9.01 20.89,9.74 34.35,4.9 2.28,-0.97 4.76,-2.08 4.76,-2.08l0 -9.02 -4.76 2.49c-10.86,4.7 -19.02,4.7 -25.54,-0.85 -4.19,-4.24 -6.01,-9.27 -6.86,-15.15l40.49 0 0 -7.71c0,-15.65 -9.47,-25.59 -23.25,-25.33l0.02 -0.02zm-16.4 25.09c0,0 1.51,-9.8 7.06,-13.72 2.67,-1.89 5.74,-2.81 8.74,-2.81 3,0 6.01,0.97 8.49,2.88 5.09,3.92 5.95,13.59 5.95,13.59l-30.23 0 -0.01 0.07 0 -0zm-184.35 -10.06c-10.9,-6.59 -15.73,-11.37 -15.14,-16.99 1.69,-15.55 20.89,-13.39 31.53,-7.51l0.08 -10.45c0,0 -5.88,-2.55 -14.3,-2.67 -12.93,-0.2 -21.28,4.04 -25.21,12.67 -5.74,12.73 -0.58,22.33 17.76,33.04 10.32,6.01 14.89,11.16 14.89,16.85 0,11.76 -14.17,15.93 -28.79,8.49 -3,-1.5 -5.54,-2.73 -5.69,-2.73 -0.52,3.33 -0.25,11.31 -0.25,11.31 0,0 4.44,1.82 11.16,3.19 16.73,3.34 31.95,-4.49 33.38,-17.22 1.24,-11.89 -3.07,-18.16 -19.4,-27.96l0 -0.01 -0 -0zm259.85 -14.51c-5.81,0 -10.31,2.36 -13.26,6.99l-2.35 3.66 0 -9.53 -10.06 0 0 57.2 10.05 0 0 -18.29c0,-16.72 0.2,-18.68 2.55,-23.25 3.22,-6.27 8.76,-9.41 14.12,-7.9l3.59 1.05 0 -9.94 -4.64 0 0 0zm-339.83 14.18l0 -36.44 -10.14 0 0 80.72 42.64 0 0 -9.53 -32.5 0 0 -34.74 -0 0zm234.5 11.36l-8.36 21.75 -8.04 -21.87 -8.16 -24.23 -10.38 0c6.73,19.07 14.04,38.46 21.42,57.27 3.2,0.07 6.4,0 9.6,0l11.29 -28.34 11.5 -28.92 -9.92 0c0,0 -4.38,11.49 -8.95,24.35l0.01 -0.01 0 0zm-379.81 -75.62c0,-2.55 -0.07,-4.44 -0.13,-5.56l0.06 0c0.26,1.32 0.58,2.3 0.85,2.95l9.74 21.75 1.63 0 9.73 -21.94c0.26,-0.6 0.53,-1.5 0.85,-2.75l0.07 0c-0.19,2.17 -0.26,4.06 -0.26,5.56l0 19.19 3.33 0 0 -28.53 -4.18 0 -8.95 19.85c-0.33,0.79 -0.79,1.96 -1.37,3.52l-0.14 0c-0.2,-0.77 -0.65,-1.95 -1.3,-3.39l-8.75 -20.05 -4.44 0 0 28.53 3.21 0 0 -19.13 0.05 -0.01zm33.17 0.05l2.88 0 0 17.77 -2.88 -0 0 -17.77 0 0zm1.44 -6.52c0.6,0 1.11,-0.2 1.5,-0.6 0.4,-0.39 0.66,-0.9 0.66,-1.5 0,-0.58 -0.2,-1.11 -0.65,-1.5 -0.4,-0.4 -0.92,-0.6 -1.51,-0.6 -0.58,0 -1.11,0.2 -1.5,0.6 -0.4,0.39 -0.66,0.91 -0.66,1.5 0,0.65 0.2,1.11 0.66,1.5 0.45,0.4 0.91,0.6 1.5,0.6l0.01 0zm21.94 24.68l0 -3.13c-1.57,1.18 -3.27,1.76 -5.02,1.76 -2.1,0 -3.8,-0.72 -5.04,-2.1 -1.24,-1.36 -1.89,-3.26 -1.89,-5.62 0,-2.47 0.66,-4.43 2.02,-5.93 1.31,-1.44 3.01,-2.16 5.09,-2.16 1.7,0 3.33,0.52 4.84,1.57l0 -3.33c-1.37,-0.72 -2.94,-1.05 -4.7,-1.05 -3.26,0 -5.81,1.05 -7.71,3.07 -1.89,2.02 -2.86,4.77 -2.86,8.09 0,2.95 0.85,5.43 2.61,7.32 1.83,1.95 4.18,2.94 7.06,2.94 2.22,-0.06 4.04,-0.53 5.62,-1.44zm8.23 -9.47c0,-2.34 0.52,-4.24 1.5,-5.54 0.91,-1.18 2.02,-1.77 3.33,-1.77 1.11,0 1.89,0.2 2.47,0.66l0 -3.4c-0.45,-0.19 -1.1,-0.26 -1.95,-0.26 -1.18,0 -2.22,0.4 -3.15,1.12 -0.97,0.77 -1.75,1.95 -2.21,3.45l-0.07 0 0 -4.17 -3.26 0 0 20.37 3.26 0 0 -10.45 0.07 0zm18.75 10.86c3.07,0 5.54,-0.99 7.38,-2.95 1.83,-1.95 2.74,-4.57 2.74,-7.83 0,-3.33 -0.84,-5.88 -2.55,-7.77 -1.69,-1.89 -4.04,-2.81 -7.11,-2.81 -3.07,0 -5.54,0.91 -7.38,2.68 -1.96,1.95 -3,4.7 -3,8.22 0,3.07 0.84,5.62 2.61,7.51 1.83,1.96 4.25,2.94 7.31,2.94l0 0.01 0 0zm-4.64 -16.6c1.24,-1.31 2.88,-1.96 4.9,-1.96 2.1,0 3.67,0.65 4.84,1.96 1.18,1.37 1.76,3.33 1.76,5.94 0,2.49 -0.52,4.44 -1.63,5.75 -1.11,1.37 -2.74,2.1 -4.9,2.1 -2.1,0 -3.72,-0.73 -4.97,-2.1 -1.23,-1.38 -1.83,-3.26 -1.83,-5.75 -0.13,-2.47 0.52,-4.49 1.83,-5.94l0 0zm29.06 14.82c1.24,-1.11 1.9,-2.47 1.9,-4.18 0,-1.5 -0.52,-2.74 -1.5,-3.72 -0.79,-0.79 -2.02,-1.5 -3.8,-2.22 -1.57,-0.66 -2.55,-1.24 -3.07,-1.7 -0.52,-0.52 -0.85,-1.18 -0.85,-2.1 0,-0.85 0.33,-1.5 0.97,-2.02 0.66,-0.52 1.5,-0.78 2.62,-0.78 1.76,0 3.26,0.46 4.64,1.45l0 -3.27c-1.32,-0.66 -2.75,-0.97 -4.38,-0.97 -2.1,0 -3.86,0.58 -5.17,1.69 -1.37,1.11 -2.02,2.55 -2.02,4.24 0,1.5 0.45,2.74 1.3,3.66 0.72,0.78 1.95,1.57 3.66,2.28 1.63,0.72 2.74,1.37 3.33,1.89 0.58,0.52 0.85,1.18 0.85,1.95 0,1.9 -1.3,2.88 -3.85,2.88 -1.96,0 -3.72,-0.64 -5.3,-1.95l0 3.52c1.42,0.85 3.13,1.24 5.02,1.24 2.42,-0.13 4.31,-0.72 5.62,-1.89l0.02 -0.01 0 0zm15.55 -19.59c-3.07,0 -5.54,0.91 -7.38,2.68 -1.95,1.95 -3,4.7 -3,8.22 0,3.07 0.85,5.62 2.61,7.51 1.83,1.96 4.25,2.94 7.32,2.94 3.15,0 5.54,-0.99 7.38,-2.95 1.83,-1.95 2.75,-4.57 2.75,-7.83 0,-3.33 -0.85,-5.88 -2.55,-7.77 -1.77,-1.89 -4.12,-2.81 -7.11,-2.81l-0.01 0.01 -0 0zm6.34 10.71c0,2.49 -0.52,4.44 -1.63,5.75 -1.11,1.37 -2.74,2.1 -4.9,2.1 -2.1,0 -3.72,-0.73 -4.97,-2.1 -1.24,-1.38 -1.83,-3.27 -1.83,-5.75 0,-2.62 0.65,-4.64 1.96,-6.01 1.23,-1.3 2.87,-1.96 4.9,-1.96 2.02,0 3.65,0.66 4.82,1.96 1.05,1.44 1.63,3.39 1.63,6.01l0.01 0zm8.82 10.19l3.26 0 0 -17.64 4.77 0 0 -2.74 -4.77 0 0 -3.15c0,-2.86 1.11,-4.3 3.4,-4.3 0.77,0 1.56,0.19 2.14,0.52l0 -2.94c-0.59,-0.26 -1.37,-0.32 -2.35,-0.32 -1.76,0 -3.2,0.52 -4.37,1.63 -1.37,1.3 -2.1,3 -2.1,5.29l0 3.34 -3.45 0 0 2.74 3.45 0 0 17.57 0.02 -0.01 0 0zm13.38 -5.56c0,3.98 1.76,6.01 5.35,6.01 1.3,0 2.28,-0.21 3.07,-0.67l0 -2.8c-0.6,0.45 -1.31,0.66 -2.1,0.66 -1.11,0 -1.89,-0.26 -2.34,-0.85 -0.46,-0.58 -0.73,-1.57 -0.73,-2.94l0 -11.5 5.17 0 0 -2.74 -5.17 0 0 -6.01c-1.12,0.39 -2.22,0.72 -3.27,1.05l0 4.96 -3.52 0 0 2.74 3.52 0 0 12.08 0.01 0.01 0 0z"/>
  </g>
 </g>
</svg>
